<svg xmlns="http://www.w3.org/2000/svg" xmlns:xlink="http://www.w3.org/1999/xlink" width="500" zoomAndPan="magnify" viewBox="0 0 375 112.499997" height="150" preserveAspectRatio="xMidYMid meet" version="1.0"><defs><g/></defs><g fill="#3d405b" fill-opacity="1"><g transform="translate(95.333394, 103.107099)"><g><path d="M 26.351562 -75.292969 L 16.824219 -75.292969 L 9.410156 -33.410156 L 18.941406 -33.410156 L 21.648438 -48.234375 L 30.117188 0 L 39.644531 0 L 35.527344 -23.527344 Z M 6.117188 -14.589844 L 6 -14.117188 L 3.53125 0 L 13.058594 0 L 15.648438 -14.589844 Z M 6.117188 -14.589844 "/></g></g></g><g fill="#3d405b" fill-opacity="1"><g transform="translate(138.502848, 103.107099)"><g><path d="M 3.53125 -75.292969 L 3.53125 0 L 17.648438 0 C 21.648438 0 24.941406 -1.410156 27.644531 -4.117188 C 30.46875 -6.941406 31.765625 -10.234375 31.765625 -14.117188 L 31.765625 -28.234375 C 31.765625 -29.765625 31.410156 -31.292969 30.707031 -33.175781 C 30 -35.058594 29.175781 -36.585938 28.117188 -37.644531 C 29.175781 -38.824219 30 -40.117188 30.707031 -42 C 31.410156 -43.882812 31.765625 -45.644531 31.765625 -47.058594 L 31.765625 -61.175781 C 31.765625 -65.175781 30.46875 -68.46875 27.644531 -71.175781 C 24.941406 -74 21.648438 -75.292969 17.648438 -75.292969 Z M 12.941406 -32.941406 L 17.648438 -32.941406 C 19.058594 -32.941406 20 -32.585938 20.941406 -31.644531 C 21.882812 -30.707031 22.351562 -29.644531 22.351562 -28.234375 L 22.351562 -14.117188 C 22.351562 -12.824219 22 -11.765625 21.058594 -10.824219 C 20.117188 -9.882812 19.058594 -9.410156 17.648438 -9.410156 L 12.941406 -9.410156 Z M 12.941406 -65.882812 L 17.648438 -65.882812 C 19.058594 -65.882812 20 -65.527344 20.941406 -64.585938 C 21.882812 -63.644531 22.351562 -62.585938 22.351562 -61.175781 L 22.351562 -47.058594 C 22.351562 -45.765625 22 -44.703125 21.058594 -43.765625 C 20.117188 -42.824219 19.058594 -42.351562 17.648438 -42.351562 L 12.941406 -42.351562 Z M 12.941406 -65.882812 "/></g></g></g><g fill="#3d405b" fill-opacity="1"><g transform="translate(173.791242, 103.107099)"><g><path d="M 3.53125 -61.175781 L 3.53125 -51.761719 L 12.941406 -51.761719 L 12.941406 -61.175781 C 12.941406 -62.585938 13.292969 -63.527344 14.234375 -64.46875 C 15.175781 -65.410156 16.351562 -65.882812 17.648438 -65.882812 C 19.058594 -65.882812 20 -65.527344 20.941406 -64.585938 C 21.882812 -63.644531 22.351562 -62.585938 22.351562 -61.175781 L 22.351562 -51.761719 L 31.765625 -51.761719 L 31.765625 -61.175781 C 31.765625 -65.175781 30.46875 -68.46875 27.644531 -71.175781 C 24.941406 -74 21.648438 -75.292969 17.648438 -75.292969 C 13.765625 -75.292969 10.46875 -74 7.648438 -71.175781 C 4.941406 -68.46875 3.53125 -65.175781 3.53125 -61.175781 Z M 3.53125 -23.527344 L 3.53125 -14.117188 C 3.53125 -10.234375 4.941406 -6.941406 7.648438 -4.117188 C 10.46875 -1.410156 13.765625 0 17.648438 0 C 21.648438 0 24.941406 -1.410156 27.644531 -4.117188 C 30.46875 -6.941406 31.765625 -10.234375 31.765625 -14.117188 L 31.765625 -23.527344 L 22.351562 -23.527344 L 22.351562 -14.117188 C 22.351562 -12.824219 22 -11.765625 21.058594 -10.824219 C 20.117188 -9.882812 19.058594 -9.410156 17.648438 -9.410156 C 16.351562 -9.410156 15.292969 -9.765625 14.351562 -10.707031 C 13.410156 -11.648438 12.941406 -12.824219 12.941406 -14.117188 L 12.941406 -23.527344 Z M 3.53125 -23.527344 "/></g></g></g><g fill="#3d405b" fill-opacity="1"><g transform="translate(209.079635, 103.107099)"><g><path d="M 3.53125 -23.527344 L 3.53125 -14.117188 C 3.53125 -10.234375 4.941406 -6.941406 7.648438 -4.117188 C 10.46875 -1.410156 13.765625 0 17.648438 0 C 21.648438 0 24.941406 -1.410156 27.644531 -4.117188 C 30.46875 -6.941406 31.765625 -10.234375 31.765625 -14.117188 L 31.765625 -23.527344 L 22.351562 -23.527344 L 22.351562 -14.117188 C 22.351562 -12.824219 22 -11.765625 21.058594 -10.824219 C 20.117188 -9.882812 19.058594 -9.410156 17.648438 -9.410156 C 16.351562 -9.410156 15.292969 -9.765625 14.351562 -10.707031 C 13.410156 -11.648438 12.941406 -12.824219 12.941406 -14.117188 L 12.941406 -23.527344 Z M 3.53125 -75.292969 L 3.53125 -51.761719 L 12.941406 -51.761719 L 12.941406 -75.292969 Z M 22.351562 -75.292969 L 22.351562 -51.761719 L 31.765625 -51.761719 L 31.765625 -75.292969 Z M 22.351562 -75.292969 "/></g></g></g><g fill="#3d405b" fill-opacity="1"><g transform="translate(244.368029, 103.107099)"><g><path d="M 3.53125 -75.292969 L 3.53125 -65.882812 L 12.941406 -65.882812 L 12.941406 0 L 22.351562 0 L 22.351562 -65.882812 L 31.765625 -65.882812 L 31.765625 -75.292969 Z M 3.53125 -75.292969 "/></g></g></g></svg>