<svg xmlns="http://www.w3.org/2000/svg" xmlns:xlink="http://www.w3.org/1999/xlink" width="500" zoomAndPan="magnify" viewBox="0 0 375 112.499997" height="150" preserveAspectRatio="xMidYMid meet" version="1.0"><defs><g/></defs><g fill="#000000" fill-opacity="1"><g transform="translate(13.193199, 72.662491)"><g><path d="M 17.960938 -51.320312 L 11.464844 -51.320312 L 6.414062 -22.773438 L 12.910156 -22.773438 L 14.753906 -32.875 L 20.527344 0 L 27.023438 0 L 24.214844 -16.039062 Z M 4.167969 -9.941406 L 4.089844 -9.621094 L 2.40625 0 L 8.902344 0 L 10.664062 -9.941406 Z M 4.167969 -9.941406 "/></g></g></g><g fill="#000000" fill-opacity="1"><g transform="translate(42.617363, 72.662491)"><g><path d="M 2.40625 -51.320312 L 2.40625 0 L 8.820312 0 L 8.820312 -30.472656 L 18.203125 0 L 24.9375 0 L 24.9375 -51.320312 L 18.523438 -51.320312 L 18.523438 -20.847656 L 9.140625 -51.320312 Z M 2.40625 -51.320312 "/></g></g></g><g fill="#000000" fill-opacity="1"><g transform="translate(69.876804, 72.662491)"><g><path d="M 2.40625 -51.320312 L 2.40625 0 L 12.027344 0 C 14.753906 0 17 -0.960938 18.84375 -2.804688 C 20.769531 -4.730469 21.648438 -6.976562 21.648438 -9.621094 L 21.648438 -41.695312 C 21.648438 -44.421875 20.769531 -46.667969 18.84375 -48.511719 C 17 -50.4375 14.753906 -51.320312 12.027344 -51.320312 Z M 8.820312 -44.902344 L 12.027344 -44.902344 C 12.988281 -44.902344 13.632812 -44.664062 14.273438 -44.023438 C 14.914062 -43.378906 15.234375 -42.660156 15.234375 -41.695312 L 15.234375 -9.621094 C 15.234375 -8.742188 14.996094 -8.019531 14.351562 -7.378906 C 13.710938 -6.734375 12.988281 -6.414062 12.027344 -6.414062 L 8.820312 -6.414062 Z M 8.820312 -44.902344 "/></g></g></g><g fill="#000000" fill-opacity="1"><g transform="translate(93.929262, 72.662491)"><g><path d="M 2.40625 -51.320312 L 2.40625 0 L 8.820312 0 L 8.820312 -22.453125 L 12.109375 -22.453125 L 17.722656 0 L 24.375 0 L 18.121094 -24.699219 C 19.085938 -25.5 19.964844 -26.542969 20.609375 -27.984375 C 21.328125 -29.507812 21.648438 -30.871094 21.648438 -32.074219 L 21.648438 -41.695312 C 21.648438 -44.421875 20.769531 -46.667969 18.84375 -48.511719 C 17 -50.4375 14.753906 -51.320312 12.027344 -51.320312 Z M 8.820312 -44.902344 L 12.027344 -44.902344 C 12.988281 -44.902344 13.632812 -44.664062 14.273438 -44.023438 C 14.914062 -43.378906 15.234375 -42.660156 15.234375 -41.695312 L 15.234375 -32.074219 C 15.234375 -31.191406 14.996094 -30.472656 14.351562 -29.828125 C 13.710938 -29.1875 12.988281 -28.867188 12.027344 -28.867188 L 8.820312 -28.867188 Z M 8.820312 -44.902344 "/></g></g></g><g fill="#000000" fill-opacity="1"><g transform="translate(120.627484, 72.662491)"><g><path d="M 2.40625 -51.320312 L 2.40625 -44.902344 L 21.648438 -44.902344 L 21.648438 -51.320312 Z M 2.40625 -6.414062 L 2.40625 0 L 21.648438 0 L 21.648438 -6.414062 Z M 2.40625 -28.867188 L 2.40625 -22.453125 L 18.441406 -22.453125 L 18.441406 -28.867188 Z M 2.40625 -28.867188 "/></g></g></g><g fill="#000000" fill-opacity="1"><g transform="translate(144.679942, 72.662491)"><g><path d="M 6.253906 0 L 13.472656 0 L 18.761719 -32.554688 L 24.136719 0 L 31.351562 0 L 35.121094 -51.320312 L 28.707031 -51.320312 L 26.703125 -24.054688 L 22.210938 -51.320312 L 15.316406 -51.320312 L 10.90625 -24.054688 L 8.820312 -51.320312 L 2.40625 -51.320312 Z M 6.253906 0 "/></g></g></g><g fill="#000000" fill-opacity="1"><g transform="translate(182.201763, 72.662491)"><g/></g></g><g fill="#000000" fill-opacity="1"><g transform="translate(206.254221, 72.662491)"><g><path d="M 2.40625 -41.695312 L 2.40625 -9.621094 C 2.40625 -6.976562 3.367188 -4.730469 5.210938 -2.804688 C 7.136719 -0.960938 9.382812 0 12.027344 0 C 14.753906 0 17 -0.960938 18.84375 -2.804688 C 20.769531 -4.730469 21.648438 -6.976562 21.648438 -9.621094 L 21.648438 -12.828125 L 15.234375 -12.828125 L 15.234375 -9.621094 C 15.234375 -8.742188 14.996094 -8.019531 14.351562 -7.378906 C 13.710938 -6.734375 12.988281 -6.414062 12.027344 -6.414062 C 11.144531 -6.414062 10.425781 -6.65625 9.78125 -7.296875 C 9.140625 -7.9375 8.820312 -8.742188 8.820312 -9.621094 L 8.820312 -41.695312 C 8.820312 -42.660156 9.0625 -43.300781 9.703125 -43.941406 C 10.34375 -44.582031 11.144531 -44.902344 12.027344 -44.902344 C 12.988281 -44.902344 13.632812 -44.664062 14.273438 -44.023438 C 14.914062 -43.378906 15.234375 -42.660156 15.234375 -41.695312 L 15.234375 -38.488281 L 21.648438 -38.488281 L 21.648438 -41.695312 C 21.648438 -44.421875 20.769531 -46.667969 18.84375 -48.511719 C 17 -50.4375 14.753906 -51.320312 12.027344 -51.320312 C 9.382812 -51.320312 7.136719 -50.4375 5.210938 -48.511719 C 3.367188 -46.667969 2.40625 -44.421875 2.40625 -41.695312 Z M 2.40625 -41.695312 "/></g></g></g><g fill="#000000" fill-opacity="1"><g transform="translate(230.306667, 72.662491)"><g><path d="M 17.960938 -51.320312 L 11.464844 -51.320312 L 6.414062 -22.773438 L 12.910156 -22.773438 L 14.753906 -32.875 L 20.527344 0 L 27.023438 0 L 24.214844 -16.039062 Z M 4.167969 -9.941406 L 4.089844 -9.621094 L 2.40625 0 L 8.902344 0 L 10.664062 -9.941406 Z M 4.167969 -9.941406 "/></g></g></g><g fill="#000000" fill-opacity="1"><g transform="translate(259.73083, 72.662491)"><g><path d="M 2.40625 -51.320312 L 2.40625 0 L 8.820312 0 L 8.820312 -22.453125 L 12.109375 -22.453125 L 17.722656 0 L 24.375 0 L 18.121094 -24.699219 C 19.085938 -25.5 19.964844 -26.542969 20.609375 -27.984375 C 21.328125 -29.507812 21.648438 -30.871094 21.648438 -32.074219 L 21.648438 -41.695312 C 21.648438 -44.421875 20.769531 -46.667969 18.84375 -48.511719 C 17 -50.4375 14.753906 -51.320312 12.027344 -51.320312 Z M 8.820312 -44.902344 L 12.027344 -44.902344 C 12.988281 -44.902344 13.632812 -44.664062 14.273438 -44.023438 C 14.914062 -43.378906 15.234375 -42.660156 15.234375 -41.695312 L 15.234375 -32.074219 C 15.234375 -31.191406 14.996094 -30.472656 14.351562 -29.828125 C 13.710938 -29.1875 12.988281 -28.867188 12.027344 -28.867188 L 8.820312 -28.867188 Z M 8.820312 -44.902344 "/></g></g></g><g fill="#000000" fill-opacity="1"><g transform="translate(286.429041, 72.662491)"><g><path d="M 2.40625 -51.320312 L 2.40625 0 L 12.027344 0 C 14.753906 0 17 -0.960938 18.84375 -2.804688 C 20.769531 -4.730469 21.648438 -6.976562 21.648438 -9.621094 L 21.648438 -41.695312 C 21.648438 -44.421875 20.769531 -46.667969 18.84375 -48.511719 C 17 -50.4375 14.753906 -51.320312 12.027344 -51.320312 Z M 8.820312 -44.902344 L 12.027344 -44.902344 C 12.988281 -44.902344 13.632812 -44.664062 14.273438 -44.023438 C 14.914062 -43.378906 15.234375 -42.660156 15.234375 -41.695312 L 15.234375 -9.621094 C 15.234375 -8.742188 14.996094 -8.019531 14.351562 -7.378906 C 13.710938 -6.734375 12.988281 -6.414062 12.027344 -6.414062 L 8.820312 -6.414062 Z M 8.820312 -44.902344 "/></g></g></g><g fill="#000000" fill-opacity="1"><g transform="translate(310.481487, 72.662491)"><g><path d="M 2.40625 -41.695312 L 2.40625 -35.28125 L 8.820312 -35.28125 L 8.820312 -41.695312 C 8.820312 -42.660156 9.0625 -43.300781 9.703125 -43.941406 C 10.34375 -44.582031 11.144531 -44.902344 12.027344 -44.902344 C 12.988281 -44.902344 13.632812 -44.664062 14.273438 -44.023438 C 14.914062 -43.378906 15.234375 -42.660156 15.234375 -41.695312 L 15.234375 -35.28125 L 21.648438 -35.28125 L 21.648438 -41.695312 C 21.648438 -44.421875 20.769531 -46.667969 18.84375 -48.511719 C 17 -50.4375 14.753906 -51.320312 12.027344 -51.320312 C 9.382812 -51.320312 7.136719 -50.4375 5.210938 -48.511719 C 3.367188 -46.667969 2.40625 -44.421875 2.40625 -41.695312 Z M 2.40625 -16.039062 L 2.40625 -9.621094 C 2.40625 -6.976562 3.367188 -4.730469 5.210938 -2.804688 C 7.136719 -0.960938 9.382812 0 12.027344 0 C 14.753906 0 17 -0.960938 18.84375 -2.804688 C 20.769531 -4.730469 21.648438 -6.976562 21.648438 -9.621094 L 21.648438 -16.039062 L 15.234375 -16.039062 L 15.234375 -9.621094 C 15.234375 -8.742188 14.996094 -8.019531 14.351562 -7.378906 C 13.710938 -6.734375 12.988281 -6.414062 12.027344 -6.414062 C 11.144531 -6.414062 10.425781 -6.65625 9.78125 -7.296875 C 9.140625 -7.9375 8.820312 -8.742188 8.820312 -9.621094 L 8.820312 -16.039062 Z M 2.40625 -16.039062 "/></g></g></g><g fill="#000000" fill-opacity="1"><g transform="translate(334.533933, 72.662491)"><g><path d="M 2.40625 -51.320312 L 2.40625 0 L 8.820312 0 L 8.820312 -30.472656 L 18.203125 0 L 24.9375 0 L 24.9375 -51.320312 L 18.523438 -51.320312 L 18.523438 -20.847656 L 9.140625 -51.320312 Z M 2.40625 -51.320312 "/></g></g></g><g fill="#000000" fill-opacity="1"><g transform="translate(68.747722, 92.082078)"><g><path d="M 15.789062 -21.945312 C 16.105469 -22.105469 16.421875 -22.261719 16.738281 -22.472656 C 17.210938 -22.789062 17.839844 -22.894531 18.050781 -23.527344 C 18.050781 -23.578125 18.105469 -23.632812 18.15625 -23.683594 L 19.421875 -24.316406 C 19.683594 -24.421875 20 -24.472656 20.316406 -24.578125 C 21.261719 -24.945312 22.210938 -25.421875 23.261719 -25.578125 L 23.632812 -25.578125 L 23.421875 -25.367188 C 22.894531 -24.945312 22.367188 -24.578125 21.839844 -24.15625 C 21.472656 -23.894531 21.15625 -23.632812 20.789062 -23.367188 C 19.839844 -22.527344 16.261719 -19.472656 15.945312 -18.261719 C 15.84375 -17.894531 15.632812 -17.527344 15.472656 -17.15625 C 15.472656 -17.105469 15.421875 -17.050781 15.421875 -17 C 15.421875 -16.839844 15.527344 -16.789062 15.683594 -16.789062 C 15.789062 -16.839844 15.84375 -16.894531 15.894531 -16.894531 C 16 -16.894531 16.105469 -16.789062 16.15625 -16.632812 C 16.15625 -16.578125 16.210938 -16.527344 16.210938 -16.527344 C 16.472656 -16.683594 16.789062 -16.789062 16.945312 -17 C 17.210938 -17.421875 17.472656 -17.789062 17.894531 -18.050781 C 18.210938 -18.261719 18.472656 -18.527344 18.789062 -18.789062 C 18.839844 -18.789062 19.050781 -18.839844 19.050781 -18.894531 C 19.050781 -19.316406 19.472656 -19.15625 19.683594 -19.316406 C 19.789062 -19.421875 21.15625 -20.261719 21.367188 -20.367188 C 22.738281 -20.894531 25 -22.210938 25.632812 -23.683594 C 25.894531 -24.472656 25.945312 -25.261719 25.316406 -26 L 25.421875 -26.578125 C 24.894531 -27.261719 23.945312 -27.421875 23.15625 -27.421875 C 22.683594 -27.421875 20.578125 -27.316406 20.316406 -26.839844 C 20.261719 -26.632812 20.105469 -26.578125 19.945312 -26.527344 C 18.261719 -25.894531 16.527344 -25.421875 14.894531 -24.632812 C 14.050781 -24.210938 13.210938 -23.839844 12.367188 -23.421875 L 10.632812 -22.472656 C 8.578125 -21.316406 3.050781 -17.738281 2.789062 -15.105469 C 2.683594 -14.261719 2.894531 -13.527344 3.578125 -12.945312 C 4.210938 -12.421875 5.472656 -12.15625 6.316406 -12.15625 C 6.84375 -12.15625 7.316406 -12.261719 7.84375 -12.421875 C 8.367188 -12.578125 8.894531 -12.683594 9.421875 -12.84375 C 10.894531 -13.367188 12.578125 -13.894531 14.15625 -13.894531 C 14.316406 -13.894531 14.527344 -13.894531 14.683594 -13.84375 C 14.945312 -13.738281 15 -13.632812 14.945312 -13.367188 C 14.84375 -12.789062 14.472656 -12.316406 14.050781 -11.894531 C 13.050781 -10.894531 12.050781 -9.894531 11 -8.945312 C 9.789062 -7.84375 8.527344 -6.738281 7.316406 -5.632812 C 6.261719 -4.683594 5.210938 -3.683594 4.15625 -2.683594 C 3.472656 -2.050781 2.738281 -1.421875 2.050781 -0.738281 C 1.578125 -0.316406 1.15625 0.15625 0.738281 0.578125 C 0.578125 0.738281 0.367188 0.84375 0.210938 1 C -0.0507812 1.261719 -0.261719 1.578125 -0.527344 1.84375 L -1.632812 2.789062 C -1.894531 3.050781 -2.210938 3.261719 -2.472656 3.527344 C -3 4 -3.472656 4.472656 -3.949219 5 C -4.632812 5.738281 -5.316406 6.527344 -6 7.316406 C -6.15625 7.527344 -6.261719 7.738281 -6.421875 7.945312 C -6.15625 7.738281 -5.945312 7.472656 -5.738281 7.261719 C -5.472656 7.050781 -5.210938 6.789062 -4.949219 6.578125 C -4.527344 6.261719 -4.105469 5.945312 -3.632812 5.632812 C -3.261719 5.367188 -3.050781 5 -2.632812 4.84375 C -2.210938 4.683594 -1.894531 4.316406 -1.527344 4 C -1.210938 3.789062 -0.949219 3.527344 -0.632812 3.316406 C 0.421875 2.472656 1.472656 1.632812 2.578125 0.894531 C 3.050781 0.527344 4.738281 -0.738281 5.15625 -0.949219 C 5.683594 -1.261719 6.15625 -1.683594 6.738281 -2 L 7.84375 -2.632812 C 7.894531 -2.683594 7.945312 -2.738281 7.945312 -2.789062 C 7.945312 -3 8.050781 -3.105469 8.261719 -3.15625 C 8.421875 -3.210938 8.578125 -3.316406 8.683594 -3.421875 L 9.472656 -4.050781 C 9.421875 -4.15625 9.367188 -4.261719 9.316406 -4.316406 C 9.472656 -4.367188 9.632812 -4.421875 9.738281 -4.527344 C 9.84375 -4.632812 9.894531 -4.738281 10 -4.84375 L 10.15625 -5.316406 C 10.210938 -5.261719 10.316406 -5.210938 10.421875 -5.15625 C 10.578125 -5.632812 11.050781 -5.472656 11.367188 -5.578125 C 11.316406 -5.738281 11.261719 -5.894531 11.210938 -6.15625 C 11.367188 -6.050781 11.472656 -5.945312 11.578125 -5.84375 L 11.578125 -6.15625 C 11.632812 -6.105469 11.738281 -6.050781 11.84375 -6 L 12.316406 -6.472656 C 12.367188 -6.527344 12.367188 -6.578125 12.367188 -6.632812 L 12.527344 -7.105469 C 12.527344 -7.15625 12.578125 -7.15625 12.632812 -7.15625 L 12.683594 -7.105469 C 12.683594 -6.945312 12.738281 -6.894531 12.789062 -6.894531 C 12.789062 -6.894531 12.894531 -6.945312 12.945312 -7 C 13 -7.050781 13.105469 -7.050781 13.15625 -7.050781 L 13.15625 -7.367188 L 13.683594 -7.367188 C 13.683594 -7.421875 13.738281 -7.578125 13.789062 -7.738281 C 13.84375 -7.683594 13.894531 -7.683594 13.945312 -7.632812 L 13.945312 -8.15625 L 14.261719 -8 L 14.421875 -8.15625 L 14.261719 -8.316406 C 14.738281 -8.367188 14.789062 -8.421875 14.632812 -8.789062 L 15.421875 -9.261719 C 15.632812 -9.578125 15.84375 -9.894531 16.050781 -10.15625 C 16.472656 -10.789062 16.789062 -11.421875 16.894531 -12.210938 C 17 -13.050781 16.683594 -13.84375 16.050781 -14.105469 C 15.472656 -14.367188 14.84375 -14.472656 14.210938 -14.472656 C 14 -14.472656 13.789062 -14.472656 13.578125 -14.421875 C 12.945312 -14.316406 12.316406 -14.15625 11.683594 -14 C 10.15625 -13.683594 8.632812 -13.316406 7.105469 -13.050781 C 6.894531 -13 6.632812 -13 6.421875 -13 C 6 -13 5.578125 -13.050781 5.15625 -13.261719 C 4.949219 -13.367188 4.84375 -13.527344 4.894531 -13.738281 C 5.050781 -14.15625 5.210938 -14.578125 5.472656 -14.945312 C 6.316406 -16.367188 8.261719 -17.632812 9.632812 -18.527344 C 10.050781 -18.789062 10.472656 -19 10.894531 -19.261719 C 11.15625 -19.421875 11.367188 -19.578125 11.632812 -19.683594 C 11.894531 -19.839844 12.210938 -19.945312 12.472656 -20.105469 L 14.050781 -21.050781 C 14.632812 -21.367188 15.210938 -21.632812 15.789062 -21.945312 Z M 15.789062 -21.945312 "/></g></g></g><g fill="#000000" fill-opacity="1"><g transform="translate(85.47946, 92.082078)"><g><path d="M -2.738281 -0.472656 C -2.683594 0.421875 -2.105469 1.316406 -1.105469 1.316406 C -0.894531 1.316406 -0.738281 1.261719 -0.632812 1.15625 C -0.261719 0.84375 0.210938 0.789062 0.632812 0.683594 C 2 0.15625 3.578125 -0.683594 4.472656 -1.894531 C 4.84375 -2.316406 5.15625 -2.789062 5.527344 -3.210938 C 5.632812 -3.367188 5.683594 -3.261719 5.683594 -3.105469 L 5.527344 -2.949219 C 5.632812 -2.894531 5.738281 -2.84375 5.84375 -2.738281 L 5.367188 -1.949219 C 5.789062 -2.367188 6.316406 -2.949219 6.632812 -3.472656 C 6.84375 -3.789062 7 -4.105469 7.210938 -4.421875 C 7.261719 -4.527344 7.421875 -4.578125 7.472656 -4.683594 C 7.789062 -5.261719 8.050781 -5.84375 8.316406 -6.421875 L 8.316406 -6.578125 C 8.316406 -6.738281 8.316406 -6.945312 8.367188 -7.105469 C 8.472656 -7.367188 8.527344 -7.632812 8.683594 -7.894531 C 8.789062 -8.050781 8.738281 -8.316406 8.789062 -8.527344 C 8.84375 -8.738281 8.894531 -8.945312 8.945312 -9.210938 L 8.84375 -9.316406 C 9 -9.367188 9.15625 -9.421875 9.316406 -9.527344 C 9.367188 -9.578125 9.367188 -9.632812 9.367188 -9.683594 L 9.421875 -9.683594 L 9.367188 -9.84375 L 9.367188 -9.683594 C 9.316406 -9.632812 9.261719 -9.578125 9.105469 -9.472656 C 9.15625 -9.683594 9.105469 -9.683594 9 -9.683594 C 8.945312 -9.683594 8.894531 -9.683594 8.84375 -9.738281 C 9 -9.789062 9.105469 -9.84375 9.15625 -9.84375 C 9.15625 -10.632812 8.84375 -14.050781 7.683594 -14.050781 C 7.578125 -14.050781 7.472656 -14.050781 7.421875 -14 C 7.316406 -13.945312 7.261719 -13.84375 7.15625 -13.738281 C 7.15625 -13.683594 7.210938 -13.578125 7.210938 -13.472656 L 7.367188 -12.210938 L 7.367188 -11.894531 C 7.421875 -11.367188 7.210938 -10.894531 7.15625 -10.367188 C 7.050781 -9.367188 6.738281 -8.15625 6.421875 -7.15625 C 5.84375 -5.683594 4.527344 -3.949219 3.527344 -2.738281 C 3.472656 -2.683594 3.421875 -2.683594 3.367188 -2.683594 L 2.894531 -2.367188 C 2.632812 -2.105469 2.421875 -1.789062 2.15625 -1.527344 C 1.683594 -1.105469 1.210938 -0.683594 0.738281 -0.316406 C 0.261719 0.0507812 -0.210938 0.367188 -0.683594 0.738281 L -0.84375 0.738281 L -1 0.105469 C -1.050781 -0.210938 -1.050781 -0.527344 -1.050781 -0.84375 L -1.261719 -0.632812 C -1.210938 -0.84375 -1.15625 -1 -1.210938 -1.105469 C -1.15625 -1.261719 -1.210938 -1.472656 -1.15625 -1.632812 L -1.050781 -1.632812 C -0.84375 -2.15625 -0.578125 -2.683594 -0.316406 -3.210938 L -0.15625 -3.527344 L -0.316406 -3.527344 C -0.683594 -2.84375 -1.15625 -2.210938 -1.316406 -1.421875 C -1.316406 -1.84375 -1.15625 -2.15625 -1.050781 -2.472656 C -1 -2.578125 -0.949219 -2.683594 -0.949219 -2.789062 C -0.84375 -3.210938 -0.683594 -3.578125 -0.472656 -3.949219 L 0 -4.894531 C 0.0507812 -5 0.105469 -5.105469 0.210938 -5.261719 C 0.210938 -5.261719 0.210938 -5.367188 0.261719 -5.421875 C 0.316406 -5.527344 0.421875 -5.578125 0.472656 -5.683594 C 0.578125 -5.789062 0.632812 -5.945312 0.738281 -6.050781 C 0.949219 -6.316406 1.210938 -6.527344 1.421875 -6.789062 C 1.632812 -7 1.789062 -7.261719 2 -7.527344 L 2.632812 -8.316406 C 2.789062 -8.472656 3 -8.578125 3.105469 -8.789062 L 3 -8.316406 L 3.15625 -8.316406 L 3.316406 -8.945312 L 3.210938 -8.945312 C 3.421875 -9.316406 3.84375 -9.527344 4.15625 -9.683594 C 4.210938 -9.894531 4.210938 -9.945312 4.367188 -9.945312 L 4.683594 -9.945312 C 4.949219 -10.261719 5.210938 -10.527344 5.472656 -10.789062 C 6 -11.210938 6.316406 -11.738281 6.367188 -12.421875 C 6.367188 -12.683594 5.894531 -13.261719 5.738281 -13.261719 C 5.683594 -13.261719 5.632812 -13.261719 5.578125 -13.210938 L 5.261719 -12.894531 C 5.105469 -12.738281 4.949219 -12.527344 4.738281 -12.367188 C 2.683594 -10.738281 -1.050781 -6.421875 -2.105469 -3.894531 C -2.105469 -3.84375 -2.15625 -3.789062 -2.15625 -3.738281 C -2.316406 -3.316406 -2.527344 -2.949219 -2.683594 -2.527344 C -2.894531 -1.84375 -2.84375 -1.15625 -2.738281 -0.472656 Z M 5.945312 -3.683594 C 6 -3.949219 5.945312 -4.15625 6.261719 -4.15625 C 6.421875 -4.15625 6.421875 -4.527344 6.210938 -4.683594 C 6.367188 -4.789062 6.578125 -4.894531 6.738281 -5.050781 C 6.789062 -5.105469 6.789062 -5.261719 6.789062 -5.421875 C 6.945312 -5.527344 6.894531 -5.894531 7.210938 -5.84375 C 7.210938 -5.84375 7.261719 -5.945312 7.261719 -6 C 7.105469 -6.421875 7.472656 -6.738281 7.527344 -7.105469 L 8 -7.105469 C 7.894531 -6.789062 7.789062 -6.527344 7.683594 -6.261719 L 7.84375 -6.316406 L 7.527344 -5.527344 L 7.527344 -5.421875 C 7.261719 -5.210938 7.15625 -4.949219 7.050781 -4.683594 C 6.945312 -4.472656 6.789062 -4.316406 6.632812 -4.15625 C 6.421875 -4 6.261719 -3.84375 6 -3.683594 C 6.050781 -3.632812 6.15625 -3.632812 6.316406 -3.578125 L 5.738281 -3.421875 C 5.789062 -3.632812 5.789062 -3.683594 5.945312 -3.683594 Z M 8 -8.367188 C 8.105469 -8.367188 8.210938 -8.261719 8.367188 -8.15625 L 7.945312 -7.945312 L 7.894531 -8 C 7.894531 -8.050781 7.84375 -8.105469 7.84375 -8.15625 C 7.894531 -8.261719 7.945312 -8.367188 8 -8.367188 Z M 6.421875 -11.738281 L 6.421875 -11.683594 L 6.578125 -11.683594 C 6.578125 -11.894531 6.632812 -12.261719 6.894531 -12.261719 L 6.578125 -12.421875 C 6.527344 -12.15625 6.472656 -11.945312 6.421875 -11.738281 Z M 1.210938 -5.738281 C 1.316406 -6 1.421875 -6.210938 1.527344 -6.421875 C 1.050781 -5.945312 1.050781 -5.945312 1.210938 -5.738281 Z M 0.738281 -5.261719 C 0.789062 -5.316406 0.789062 -5.421875 0.789062 -5.472656 C 0.738281 -5.421875 0.683594 -5.421875 0.632812 -5.367188 L 0.261719 -4.789062 Z M 5.789062 -2.949219 L 5.945312 -3.261719 L 6.105469 -3.261719 C 6.050781 -3.15625 6 -3.050781 5.945312 -2.789062 Z M 5.789062 -2.949219 "/></g></g></g><g fill="#000000" fill-opacity="1"><g transform="translate(95.108101, 92.082078)"><g><path d="M 7.894531 -14.316406 L 7.578125 -13.527344 C 7.105469 -13.527344 6.683594 -13.472656 6.210938 -13.472656 C 5.578125 -13.472656 4.949219 -13.527344 4.316406 -13.683594 C 4.15625 -13.421875 4.105469 -13.15625 4.210938 -12.894531 C 4.367188 -12.15625 5.738281 -11.789062 6.367188 -11.738281 C 6.472656 -11.738281 6.578125 -11.683594 6.683594 -11.632812 C 6.472656 -11.210938 6.261719 -10.789062 6.050781 -10.421875 C 5.789062 -9.945312 5.472656 -9.472656 5.210938 -9 L 4.421875 -7.738281 C 4.367188 -7.632812 4.316406 -7.578125 4.210938 -7.578125 C 3.527344 -7.472656 2.84375 -7.316406 2.210938 -7 L 2.210938 -6.84375 C 2.15625 -6.527344 2.210938 -6.367188 2.472656 -6.210938 C 2.578125 -6.15625 2.738281 -6.15625 2.84375 -6.15625 L 3.367188 -6.15625 C 3.316406 -6.050781 3.261719 -6 3.210938 -5.945312 C 2.949219 -5.527344 2.683594 -5.15625 2.421875 -4.738281 C 1.789062 -3.738281 1.210938 -2.738281 0.632812 -1.738281 L -0.789062 0.472656 C -1.367188 1.421875 -2 2.316406 -2.472656 3.316406 C -2.894531 4.105469 -3.15625 4.949219 -3.210938 5.84375 C -3.105469 5.738281 -2.949219 5.683594 -2.894531 5.578125 C -2.789062 5.421875 -2.789062 5.210938 -2.738281 5.050781 C -2.578125 4.632812 -2.210938 4.367188 -1.894531 4.105469 C -1.683594 3.894531 -1.527344 3.632812 -1.261719 3.472656 L -1.261719 3.367188 C -1.261719 3.050781 -1.050781 2.894531 -0.84375 2.738281 C -0.738281 2.632812 -0.632812 2.527344 -0.632812 2.316406 C -0.683594 2.261719 -0.894531 2.261719 -0.789062 2.105469 C -0.683594 1.949219 -0.632812 2.15625 -0.527344 2.210938 L -0.0507812 1.261719 L -0.15625 1.15625 C 0 1.050781 0.210938 1 0.261719 0.894531 C 0.367188 0.632812 0.578125 0.472656 0.632812 0.210938 C 0.632812 0.15625 0.738281 0.105469 0.789062 0.0507812 C 0.84375 -0.0507812 0.84375 -0.15625 0.894531 -0.210938 C 1 -0.316406 1.15625 -0.421875 1.261719 -0.527344 C 1.210938 -0.84375 1.261719 -1.050781 1.527344 -1.15625 C 1.578125 -1.15625 1.578125 -1.261719 1.578125 -1.316406 C 1.632812 -1.527344 1.632812 -1.789062 1.84375 -1.894531 C 2.15625 -2.050781 2.210938 -2.421875 2.421875 -2.683594 C 2.578125 -2.84375 2.683594 -3.105469 2.84375 -3.316406 L 3 -3.15625 L 3 -3.472656 L 3.15625 -3.789062 C 3.261719 -3.738281 3.316406 -3.683594 3.421875 -3.683594 C 3.472656 -3.683594 3.527344 -3.738281 3.578125 -3.789062 C 3.472656 -3.949219 3.421875 -4.050781 3.367188 -4.15625 C 3.472656 -4.316406 3.632812 -4.421875 3.527344 -4.632812 C 3.472656 -4.683594 3.527344 -4.789062 3.578125 -4.894531 C 3.683594 -4.84375 3.738281 -4.789062 3.789062 -4.738281 L 3.949219 -5.050781 L 3.789062 -5.050781 C 3.84375 -5.210938 3.894531 -5.367188 4.105469 -5.421875 C 4.316406 -5.105469 4 -4.789062 4.050781 -4.472656 C 4.261719 -4.578125 4.316406 -4.632812 4.367188 -4.789062 C 4.421875 -4.894531 4.421875 -5 4.472656 -5.050781 C 4.738281 -5.261719 4.84375 -5.527344 5 -5.789062 C 5.421875 -6.421875 6.105469 -6.683594 6.84375 -6.738281 C 7 -6.738281 7.15625 -6.789062 7.316406 -6.894531 C 7.472656 -7 7.632812 -7.050781 7.789062 -7.050781 C 8 -7.050781 8.210938 -7.105469 8.421875 -7.15625 C 8.578125 -7.261719 8.789062 -7.316406 9 -7.316406 C 9.050781 -7.316406 9.15625 -7.261719 9.210938 -7.210938 L 9.316406 -7.210938 C 9.367188 -7.261719 9.421875 -7.367188 9.527344 -7.367188 L 9.632812 -7.261719 L 9.632812 -7.421875 L 9.84375 -7.421875 L 10.945312 -7.738281 L 11.894531 -7.894531 C 11.945312 -7.894531 12 -7.945312 12.050781 -8 C 12.15625 -8.050781 12.316406 -8.050781 12.261719 -8.210938 C 12.210938 -8.316406 12.15625 -8.316406 12.105469 -8.316406 L 9.578125 -8.316406 C 9.105469 -8.316406 8.632812 -8.261719 8.15625 -8.210938 L 6.894531 -8.050781 C 6.738281 -8.050781 6.632812 -8.105469 6.527344 -8.210938 L 7 -9 C 7 -9.050781 7.050781 -9.050781 7.050781 -9.105469 C 7.15625 -9.261719 7.367188 -9.421875 7.367188 -9.578125 C 7.367188 -9.789062 7.527344 -9.894531 7.578125 -10.050781 C 7.632812 -10.15625 7.738281 -10.261719 7.789062 -10.367188 L 8.261719 -11.632812 C 8.367188 -11.894531 8.421875 -11.894531 8.683594 -11.945312 L 9.945312 -12.105469 C 10.261719 -12.15625 10.578125 -12.261719 10.894531 -12.316406 L 13.421875 -12.632812 L 15.15625 -12.945312 C 15.316406 -13 15.472656 -13 15.632812 -13 L 16.578125 -13.15625 C 16.839844 -13.210938 17.15625 -13.210938 17.421875 -13.261719 C 17.578125 -13.316406 17.738281 -13.367188 17.894531 -13.527344 C 17.945312 -13.632812 18.050781 -13.789062 18.210938 -13.789062 C 18.261719 -13.789062 18.316406 -13.738281 18.367188 -13.738281 C 18.472656 -13.683594 18.738281 -13.789062 18.789062 -13.894531 C 18.945312 -14.15625 19.15625 -14.210938 19.367188 -14.261719 C 19.472656 -14.316406 19.527344 -14.421875 19.472656 -14.578125 L 19.472656 -14.421875 L 18.839844 -14.421875 C 18.261719 -14.316406 17.683594 -14.316406 17.105469 -14.316406 C 16.632812 -14.316406 16.15625 -14.316406 15.683594 -14.261719 L 14.105469 -14.105469 C 13.632812 -14.050781 13.15625 -14.050781 12.683594 -14.050781 C 12.210938 -14.050781 11.738281 -14 11.261719 -13.945312 L 8.738281 -13.632812 C 8.578125 -13.84375 8.472656 -14.050781 8.316406 -14.210938 C 8.210938 -14.316406 8.15625 -14.367188 8.050781 -14.367188 C 8.050781 -14.367188 8 -14.367188 7.894531 -14.316406 Z M 7.894531 -14.316406 "/></g></g></g><g fill="#000000" fill-opacity="1"><g transform="translate(108.788138, 92.082078)"><g><path d="M -2.632812 -16.527344 L -2.632812 -16.367188 C -2.578125 -16.210938 -2.527344 -16.050781 -2.421875 -15.894531 L -1.632812 -14.945312 L -0.683594 -14.472656 C -0.527344 -14.421875 -0.316406 -14.316406 -0.210938 -14.367188 C -0.0507812 -14.472656 0.105469 -14.472656 0.261719 -14.472656 C 0.527344 -14.472656 0.789062 -14.527344 1.050781 -14.632812 L 1.367188 -14.789062 C 1.632812 -14.894531 1.894531 -14.945312 2.15625 -15 C 2.261719 -15.050781 2.367188 -15.050781 2.472656 -15.050781 L 2.949219 -15.050781 C 3.210938 -15.050781 3.421875 -15.210938 3.738281 -15.210938 L 3.894531 -15.210938 C 3.949219 -15.210938 4 -15.261719 4.050781 -15.261719 L 5.316406 -15.578125 C 5.683594 -15.683594 6.050781 -15.632812 6.421875 -15.945312 C 6.367188 -15.738281 6.367188 -15.578125 6.316406 -15.421875 C 6.050781 -14.945312 5.789062 -14.472656 5.578125 -14 C 5.15625 -13.15625 4.789062 -12.261719 4.421875 -11.421875 L 3.472656 -9.527344 C 1.578125 -5.472656 0.105469 -1 -1.105469 3.316406 C -1.210938 3.632812 -1.316406 4 -1.367188 4.367188 C -1.367188 4.421875 -1.316406 4.527344 -1.261719 4.527344 C -1.210938 4.578125 -1.105469 4.527344 -1.050781 4.472656 C -0.949219 4.367188 -0.84375 4.261719 -0.789062 4.105469 L -0.316406 3 C -0.105469 2.472656 0.15625 2 0.367188 1.472656 C 0.84375 0.527344 1.367188 -0.472656 1.789062 -1.472656 C 1.84375 -1.578125 1.84375 -1.738281 1.894531 -1.789062 C 2.261719 -2.15625 2.472656 -2.632812 2.738281 -3.105469 C 2.894531 -3.367188 3.105469 -3.632812 3.261719 -3.894531 C 3.367188 -4.050781 3.421875 -4.261719 3.527344 -4.421875 C 3.632812 -4.683594 3.738281 -5 3.949219 -5.210938 C 4.367188 -5.683594 4.578125 -6.210938 4.789062 -6.789062 L 5.421875 -8.050781 C 5.527344 -8.210938 5.632812 -8.472656 5.789062 -8.527344 C 5.945312 -8.578125 5.945312 -8.683594 6 -8.789062 C 6 -8.84375 5.945312 -8.945312 6 -8.945312 C 6.210938 -9.105469 6.316406 -9.367188 6.367188 -9.632812 C 6.421875 -9.945312 6.894531 -10.105469 6.738281 -10.527344 C 6.738281 -10.527344 6.789062 -10.578125 6.789062 -10.632812 C 6.894531 -10.84375 7 -11.050781 7.050781 -11.261719 C 7.105469 -11.367188 7.050781 -11.527344 7.105469 -11.578125 C 7.421875 -11.84375 7.578125 -12.15625 7.632812 -12.578125 L 7.632812 -12.738281 C 7.84375 -13 8.050781 -13.261719 8.105469 -13.632812 L 8.105469 -13.316406 C 8.210938 -13.84375 8.261719 -14.367188 8.316406 -14.894531 C 8.421875 -15.421875 8.210938 -15.84375 7.894531 -16.210938 C 7.84375 -16.261719 7.789062 -16.367188 7.738281 -16.472656 L 8.050781 -16.632812 L 8.210938 -16.632812 L 8 -16.421875 L 8.15625 -16.421875 C 8.421875 -16.527344 8.632812 -16.683594 8.894531 -16.789062 C 9.632812 -17.050781 9.894531 -17.105469 10.683594 -17.105469 C 11.210938 -17.210938 11.738281 -17.367188 12.261719 -17.472656 L 13.367188 -17.632812 L 15.738281 -18.261719 C 15.84375 -18.316406 16 -18.316406 16.105469 -18.367188 L 19.050781 -19.789062 C 19.316406 -19.789062 19.527344 -19.839844 19.738281 -19.839844 L 19.738281 -20.210938 C 19.789062 -20.261719 19.894531 -20.316406 19.945312 -20.367188 L 19.738281 -20.367188 L 19.738281 -20.210938 C 19.632812 -20.105469 19.527344 -20 19.421875 -19.945312 L 19.050781 -19.789062 C 14.894531 -18.945312 10.738281 -18.421875 6.527344 -17.839844 C 4.683594 -17.578125 2.949219 -17.15625 1.15625 -16.738281 C 0.527344 -16.578125 -0.316406 -16.367188 -1 -16.367188 C -1.210938 -16.367188 -1.472656 -16.421875 -1.683594 -16.527344 C -1.738281 -16.578125 -1.84375 -16.578125 -1.894531 -16.527344 C -2 -16.472656 -2.105469 -16.472656 -2.210938 -16.472656 C -2.316406 -16.472656 -2.472656 -16.472656 -2.632812 -16.527344 Z M -2.632812 -16.527344 "/></g></g></g><g fill="#000000" fill-opacity="1"><g transform="translate(117.995856, 92.082078)"><g><path d="M 13.210938 -12.367188 C 13.050781 -12.050781 12.945312 -11.738281 12.789062 -11.421875 C 12.316406 -10.578125 11.789062 -9.738281 11.316406 -8.894531 C 10.84375 -8.050781 10.421875 -7.15625 9.945312 -6.316406 C 8.84375 -4.367188 7.738281 -2.472656 6.472656 -0.632812 C 6.421875 -0.578125 6.316406 -0.578125 6.210938 -0.527344 L 6.050781 -0.683594 C 6.527344 -1.683594 6.789062 -2.527344 7.050781 -3.632812 C 7.050781 -3.683594 7 -3.789062 7 -3.84375 L 7.316406 -4.632812 C 7.367188 -4.84375 7.421875 -5.050781 7.527344 -5.261719 C 7.578125 -5.421875 7.683594 -5.578125 7.738281 -5.738281 C 7.738281 -5.789062 7.632812 -5.894531 7.632812 -5.945312 C 7.738281 -6.15625 7.894531 -6.367188 7.945312 -6.578125 C 8.105469 -7.15625 8.210938 -7.738281 8.367188 -8.316406 C 8.527344 -8.894531 8.789062 -9.421875 9 -10 C 9.210938 -10.527344 9.367188 -11.050781 9.527344 -11.578125 L 9.84375 -12.84375 C 9.945312 -13.210938 10.15625 -13.578125 10.15625 -13.945312 C 10.15625 -14.261719 9.683594 -14.789062 9.367188 -14.789062 C 9.15625 -14.789062 9 -14.632812 8.894531 -14.367188 L 8.261719 -12.945312 C 7.894531 -12.105469 7.578125 -11.210938 7.105469 -10.421875 C 6.578125 -9.527344 5.894531 -8.683594 5.316406 -7.789062 L 1.527344 -2.261719 C 1.316406 -1.894531 1.050781 -1.578125 0.789062 -1.261719 C 1 -2.050781 1.261719 -2.84375 1.527344 -3.632812 L 2.949219 -7.738281 C 3 -7.84375 3.105469 -7.894531 3.15625 -8 L 3.472656 -8.316406 L 3.316406 -8.472656 L 3.15625 -8.316406 C 3.261719 -8.945312 3.472656 -9.527344 3.632812 -10.105469 C 3.789062 -10.632812 4.316406 -11 4.210938 -11.632812 C 4.210938 -11.683594 4.261719 -11.738281 4.316406 -11.789062 C 4.632812 -12.261719 4.578125 -12.789062 4.578125 -13.316406 C 4.578125 -13.84375 3.949219 -14.472656 3.367188 -14.472656 C 3.210938 -14.472656 3.105469 -14.316406 3 -13.84375 C 2.472656 -11.945312 1.949219 -10.050781 1.367188 -8.15625 C 0.578125 -5.527344 -0.316406 -2.894531 -1.15625 -0.261719 L -1.15625 0.0507812 L -1 0.683594 C -0.84375 1.105469 -0.578125 1.316406 -0.261719 1.316406 C -0.105469 1.316406 0.105469 1.210938 0.261719 1.050781 C 1.050781 0.15625 1.789062 -0.789062 2.527344 -1.738281 C 2.894531 -2.210938 3.210938 -2.738281 3.472656 -3.316406 C 3.789062 -4.105469 4.632812 -4.632812 4.578125 -5.578125 L 4.632812 -5.578125 C 4.738281 -5.683594 4.894531 -5.789062 4.949219 -5.945312 C 5.261719 -6.527344 5.578125 -7.15625 5.945312 -7.738281 C 6.105469 -8 6.316406 -8.210938 6.578125 -8.527344 C 5.738281 -6 5 -3.472656 4.472656 -0.84375 C 4.210938 0.261719 3.894531 1.367188 4.050781 2.527344 C 4.105469 2.84375 4.105469 3.210938 3.84375 3.527344 C 3.578125 3.84375 3.683594 4.105469 4.105469 4.15625 L 4.367188 4.15625 C 4.632812 4.15625 4.894531 4.105469 5.105469 3.84375 C 5.210938 3.738281 5.316406 3.683594 5.421875 3.578125 C 5.683594 3.367188 6 3.210938 6.15625 2.949219 C 6.789062 2.105469 7.367188 1.210938 7.945312 0.316406 L 8.261719 -0.15625 C 8.316406 -0.210938 8.367188 -0.316406 8.367188 -0.316406 C 8.105469 -0.472656 8.316406 -0.527344 8.421875 -0.632812 C 9 -1 10.15625 -3.15625 10.15625 -3.789062 C 10.15625 -3.84375 10.210938 -3.949219 10.261719 -4 C 11 -4.367188 10.84375 -5.261719 11.261719 -5.789062 C 11.316406 -5.84375 11.261719 -5.945312 11.316406 -6 L 11.632812 -6.472656 L 11.945312 -7.105469 C 12.210938 -7.527344 12.472656 -7.945312 12.683594 -8.421875 C 12.945312 -8.945312 13.105469 -9.527344 13.367188 -10.050781 C 13.578125 -10.472656 13.894531 -10.84375 14.15625 -11.261719 C 14.367188 -11.632812 14.316406 -12.105469 14.738281 -12.316406 L 14.738281 -12.421875 C 15.316406 -13.632812 15.945312 -14.84375 16.527344 -16.050781 C 16.683594 -16.367188 16.738281 -16.738281 16.789062 -17.050781 C 16.789062 -17.105469 16.789062 -17.15625 16.738281 -17.210938 C 16.632812 -17.15625 16.527344 -17.105469 16.472656 -17.050781 L 15.050781 -15.472656 L 15.210938 -15.472656 C 15.210938 -15.421875 15.261719 -15.367188 15.261719 -15.316406 L 13.527344 -12.632812 C 13.421875 -12.527344 13.261719 -12.472656 13.210938 -12.367188 Z M 13.210938 -12.367188 "/></g></g></g><g fill="#000000" fill-opacity="1"><g transform="translate(130.781429, 92.082078)"><g><path d="M -0.316406 1.316406 L -0.15625 1.472656 C -0.0507812 1.578125 -0.0507812 1.578125 0.105469 1.527344 C 0.316406 1.472656 0.421875 1.316406 0.527344 1.105469 C 0.632812 0.84375 0.738281 0.578125 0.949219 0.367188 C 1.050781 0.261719 1.210938 0.15625 1.261719 0 C 1.261719 -0.0507812 1.316406 -0.105469 1.367188 -0.15625 C 1.421875 -0.210938 1.472656 -0.210938 1.472656 -0.261719 C 1.578125 -0.527344 2.15625 -1.316406 2.367188 -1.472656 C 2.578125 -1.683594 2.738281 -1.949219 2.949219 -2.15625 C 3.15625 -2.316406 3.261719 -2.578125 3.472656 -2.738281 C 3.472656 -2.894531 3.632812 -2.894531 3.738281 -2.949219 C 3.894531 -3 4.050781 -3.105469 4.261719 -3.15625 C 4.527344 -3.210938 4.738281 -3.421875 5 -3.367188 C 5.261719 -3.578125 5.578125 -3.632812 5.84375 -3.738281 C 5.945312 -3.789062 6.050781 -3.84375 6.15625 -3.949219 C 6.210938 -4.050781 6.316406 -4.105469 6.421875 -4.105469 C 6.632812 -4.15625 6.789062 -4.261719 7 -4.316406 C 7.15625 -4.367188 7.316406 -4.472656 7.472656 -4.578125 C 7.527344 -4.632812 7.578125 -4.683594 7.632812 -4.683594 C 7.789062 -4.683594 7.945312 -4.789062 8.105469 -4.84375 L 8.578125 -5 C 8.84375 -5.050781 9.210938 -5.15625 9.472656 -5.15625 L 9.472656 -5 C 9.367188 -4.84375 9.316406 -4.632812 9.261719 -4.472656 L 8.945312 -3.683594 C 8.894531 -3.472656 8.894531 -3.261719 8.84375 -3.050781 C 8.738281 -2.84375 8.527344 -2.421875 8.527344 -2.15625 C 8.527344 -2.105469 8.472656 -2 8.421875 -1.949219 C 8.367188 -1.894531 8.367188 -1.789062 8.367188 -1.683594 C 8.316406 -1.527344 8.261719 -1.421875 8.210938 -1.261719 C 8.105469 -0.84375 7.945312 -0.261719 7.789062 0.15625 C 7.738281 0.316406 7.683594 0.472656 7.683594 0.632812 C 7.683594 0.789062 7.527344 0.894531 7.578125 1.105469 C 7.472656 1.261719 7.472656 1.472656 7.421875 1.632812 L 7.261719 2.421875 C 7.15625 2.789062 7.050781 3.15625 6.894531 3.527344 L 6.738281 3.84375 C 6.683594 4.105469 6.683594 4.367188 6.632812 4.632812 L 6.632812 4.789062 L 6.472656 5.421875 C 6.421875 5.683594 6.367188 5.945312 6.367188 6.261719 C 6.367188 6.316406 6.316406 6.367188 6.316406 6.421875 C 6.261719 6.632812 6.15625 6.84375 6.15625 7.050781 L 6.15625 7.210938 C 6.050781 7.367188 6.050781 7.527344 6.050781 7.683594 C 6.050781 7.738281 6.050781 7.789062 6 7.84375 C 5.945312 7.894531 5.894531 8.683594 5.894531 8.789062 C 6.15625 8.945312 6.421875 9 6.683594 9 C 6.683594 8.894531 6.632812 8.789062 6.683594 8.738281 C 6.789062 8.578125 6.789062 8.367188 6.789062 8.15625 L 6.632812 8.316406 L 6.472656 8.15625 L 6.316406 8.316406 L 6.15625 8.15625 L 6.15625 8.050781 C 6.210938 8 6.210938 7.945312 6.210938 7.894531 L 6.050781 7.894531 C 6.105469 7.84375 6.105469 7.683594 6.15625 7.632812 C 6.210938 7.578125 6.210938 7.578125 6.316406 7.578125 L 6.316406 7.261719 L 6.472656 7.105469 C 6.472656 6.84375 6.472656 6.789062 6.578125 6.789062 L 6.738281 6.789062 L 6.738281 7 C 6.894531 6.738281 7.105469 6.578125 7.15625 6.261719 C 7.15625 6.210938 7.261719 6.15625 7.316406 6.105469 C 7.261719 5.945312 7.316406 5.789062 7.421875 5.632812 C 7.472656 5.578125 7.472656 5.527344 7.472656 5.472656 L 7.472656 5.105469 L 7.367188 5.105469 C 7.421875 5.050781 7.472656 5 7.472656 4.949219 C 7.527344 4.894531 7.472656 4.789062 7.527344 4.683594 C 7.578125 4.632812 7.578125 4.527344 7.578125 4.421875 C 7.578125 4.316406 7.632812 4.316406 7.683594 4.261719 C 7.738281 4.210938 7.738281 4.105469 7.738281 4.050781 C 7.738281 4 7.683594 3.949219 7.683594 3.894531 C 8 3.789062 7.945312 3.472656 8.15625 3.316406 C 8.105469 3.210938 8.050781 3.105469 7.894531 3.15625 L 7.894531 3 C 8 3 8.105469 3 8.261719 3.050781 C 8.15625 2.84375 8.316406 2.789062 8.367188 2.683594 L 8.367188 2.578125 L 8.210938 2.421875 C 8.367188 2.472656 8.367188 2.316406 8.472656 2.261719 C 8.578125 2.15625 8.472656 2 8.527344 1.894531 L 8.84375 1.421875 L 9 1.421875 C 9.050781 1.316406 9 1.261719 8.84375 1.261719 L 9 1.105469 C 8.945312 0.949219 8.945312 0.789062 9 0.632812 L 9.15625 0.632812 C 9.15625 0.527344 9.210938 0.421875 9.050781 0.316406 C 9.316406 0.316406 9.261719 0.0507812 9.421875 -0.0507812 C 9.261719 -0.261719 9.261719 -0.367188 9.421875 -0.527344 C 9.472656 -0.472656 9.527344 -0.421875 9.578125 -0.316406 C 9.632812 -0.472656 9.632812 -0.632812 9.683594 -0.738281 C 9.738281 -0.84375 9.738281 -1 9.894531 -1.050781 C 9.84375 -1.105469 9.789062 -1.15625 9.738281 -1.261719 C 9.84375 -1.261719 9.945312 -1.210938 9.945312 -1.367188 C 10.15625 -1.527344 10.105469 -1.84375 10.261719 -2.050781 C 10.15625 -2.105469 10.105469 -2.15625 10.15625 -2.261719 C 10.15625 -2.316406 10.15625 -2.421875 10.261719 -2.316406 C 10.367188 -2.367188 10.421875 -2.472656 10.421875 -2.578125 C 10.472656 -2.84375 10.632812 -3.105469 10.738281 -3.367188 C 10.789062 -3.472656 10.84375 -3.527344 10.84375 -3.632812 C 10.84375 -3.683594 10.84375 -3.738281 10.894531 -3.789062 C 10.945312 -3.789062 10.945312 -3.84375 10.945312 -3.894531 C 10.945312 -4.105469 11.050781 -4.261719 11.15625 -4.421875 C 11.367188 -4.789062 11.472656 -5.210938 11.632812 -5.632812 C 11.578125 -5.789062 11.683594 -5.894531 11.84375 -5.945312 C 12.105469 -5.945312 12.527344 -6.050781 12.789062 -6.105469 C 12.945312 -6.15625 13.105469 -6.210938 13.210938 -6.316406 L 13.316406 -6.421875 C 13.261719 -6.632812 13.210938 -6.789062 13.15625 -6.945312 C 13.105469 -7.050781 13.050781 -7.050781 12.945312 -7 L 12.789062 -7 C 12.578125 -7 12.367188 -6.894531 12.15625 -6.84375 L 12.050781 -6.945312 C 12.15625 -7.15625 12.210938 -7.421875 12.367188 -7.632812 C 12.421875 -7.738281 12.472656 -7.894531 12.527344 -8.050781 C 12.578125 -8.15625 12.578125 -8.261719 12.578125 -8.367188 C 12.738281 -8.421875 12.683594 -8.578125 12.738281 -8.683594 C 12.84375 -8.789062 12.894531 -8.945312 12.945312 -9.050781 C 13.050781 -9.210938 13.050781 -9.421875 13.15625 -9.578125 C 13.316406 -9.789062 13.367188 -10 13.421875 -10.210938 C 13.527344 -10.472656 13.527344 -10.738281 13.738281 -10.894531 C 13.738281 -10.945312 14.105469 -11.683594 14.15625 -11.738281 C 14.105469 -12 14.316406 -12.15625 14.367188 -12.367188 L 14.527344 -12.683594 C 14.789062 -13.316406 15.105469 -13.894531 15.578125 -14.421875 C 15.632812 -14.472656 15.632812 -14.527344 15.632812 -14.578125 C 15.632812 -14.738281 15.632812 -14.894531 15.738281 -15 C 15.84375 -15.105469 15.894531 -15.210938 15.894531 -15.316406 L 15.894531 -15.632812 C 15.894531 -15.683594 15.894531 -15.738281 15.945312 -15.738281 C 16.050781 -15.789062 16.050781 -15.894531 16.050781 -16 C 16.050781 -16.210938 16 -16.421875 16.105469 -16.632812 C 16.15625 -16.738281 16.15625 -16.789062 16.105469 -16.894531 L 16.15625 -17 C 16 -17.316406 15.789062 -17.421875 15.472656 -17.421875 C 15.421875 -17.421875 15.367188 -17.421875 15.316406 -17.472656 C 15.261719 -17.527344 15.210938 -17.527344 15.15625 -17.527344 C 14.84375 -17.527344 14.472656 -16.789062 14.367188 -16.578125 C 14.367188 -16.527344 14.316406 -16.527344 14.316406 -16.472656 C 14.105469 -16.15625 13.84375 -15.84375 13.683594 -15.472656 L 13.367188 -14.84375 C 13.367188 -14.789062 13.316406 -14.789062 13.261719 -14.789062 C 13.105469 -15.105469 12.945312 -15.367188 12.632812 -15.527344 C 12.527344 -15.421875 12.421875 -15.316406 12.316406 -15.261719 L 12.15625 -15.105469 C 12.050781 -15 12 -14.894531 11.894531 -14.789062 C 11.632812 -14.527344 11.421875 -14.210938 11.15625 -13.945312 C 11.050781 -13.789062 11 -13.632812 10.789062 -13.527344 C 10.632812 -13.421875 10.527344 -13.210938 10.367188 -13.050781 C 10.261719 -12.945312 10.210938 -12.84375 10.050781 -12.789062 C 10 -12.789062 10 -12.738281 10 -12.683594 L 8.738281 -11.421875 C 8.578125 -11.261719 8.367188 -11 8.261719 -10.84375 L 7 -9.578125 L 6.945312 -9.578125 C 6.945312 -9.421875 6.84375 -9.367188 6.789062 -9.261719 L 6.632812 -8.945312 C 6.527344 -8.789062 6.367188 -8.683594 6.261719 -8.527344 C 6 -8.050781 5.632812 -7.683594 5.316406 -7.261719 C 5.105469 -6.945312 4.84375 -6.683594 4.632812 -6.367188 C 4.421875 -6.105469 4.210938 -5.84375 4 -5.632812 C 3.949219 -5.578125 3.894531 -5.472656 3.84375 -5.367188 C 3.789062 -5.210938 3.578125 -5.15625 3.527344 -5 C 3.527344 -4.949219 3.367188 -4.949219 3.261719 -4.949219 L 2.894531 -4.949219 C 2.84375 -4.894531 2.789062 -4.894531 2.738281 -4.894531 C 2.683594 -4.894531 2.578125 -4.949219 2.527344 -4.894531 C 2.472656 -4.84375 2.367188 -4.84375 2.316406 -4.84375 L 1.894531 -4.84375 C 1.84375 -4.789062 1.738281 -4.789062 1.683594 -4.789062 C 1.527344 -4.789062 1.421875 -4.84375 1.261719 -4.894531 C 1.15625 -4.949219 1.105469 -4.949219 1.050781 -4.894531 C 1 -4.84375 0.949219 -4.789062 1 -4.683594 L 1 -4.527344 C 0.949219 -4.261719 1.105469 -4.050781 1.210938 -3.84375 C 1.316406 -3.738281 1.421875 -3.632812 1.472656 -3.472656 C 1.527344 -3.316406 1.738281 -3.367188 1.84375 -3.261719 C 1.949219 -3.15625 1.949219 -3.050781 1.84375 -2.894531 C 1.738281 -2.738281 1.578125 -2.632812 1.527344 -2.421875 C 1.527344 -2.367188 1.527344 -2.316406 1.472656 -2.261719 C 1.261719 -2 1.105469 -1.683594 0.949219 -1.367188 L 0.472656 -0.578125 C 0.316406 -0.367188 0.210938 -0.15625 0.0507812 0.0507812 C -0.210938 0.421875 -0.421875 0.84375 -0.316406 1.316406 Z M 6.367188 -6.261719 L 6.84375 -6.683594 C 6.894531 -6.738281 7 -6.789062 7.050781 -6.894531 C 7.105469 -7 7.210938 -7.050781 7.316406 -7.105469 C 7.421875 -7.210938 7.527344 -7.316406 7.578125 -7.472656 C 7.683594 -7.738281 7.945312 -8 8.15625 -8.15625 L 8.210938 -8.15625 C 8.367188 -8.367188 8.578125 -8.578125 8.84375 -8.738281 C 8.945312 -8.945312 9.15625 -9.050781 9.316406 -9.210938 C 9.527344 -9.421875 9.84375 -9.578125 9.945312 -9.894531 C 10.105469 -10 10.210938 -10.15625 10.367188 -10.261719 L 10.84375 -10.738281 C 10.894531 -10.789062 10.945312 -10.894531 11.050781 -10.894531 C 11.105469 -10.894531 11.15625 -10.945312 11.210938 -11 L 11.210938 -11.15625 L 11.367188 -11.316406 C 11.316406 -11.15625 11.316406 -11 11.261719 -10.84375 L 10.738281 -9.632812 C 10.632812 -9.261719 10.472656 -8.894531 10.367188 -8.527344 C 10.316406 -8.421875 10.316406 -8.316406 10.316406 -8.210938 C 10.316406 -8.15625 10.316406 -8.050781 10.261719 -8 C 10.210938 -7.84375 10.261719 -7.683594 10.15625 -7.527344 C 10.105469 -7.367188 10.105469 -7.210938 10.050781 -7.050781 C 10 -6.894531 9.945312 -6.683594 9.894531 -6.527344 C 9.84375 -6.367188 9.738281 -6.316406 9.632812 -6.316406 C 9.421875 -6.316406 9.210938 -6.261719 9 -6.210938 C 8.894531 -6.15625 8.789062 -6.15625 8.683594 -6.15625 L 8.050781 -6.15625 C 7.84375 -6.15625 7.632812 -6.105469 7.421875 -6.050781 C 7.316406 -6.050781 7.210938 -6 7.105469 -6 L 7 -6 C 6.84375 -6 6.683594 -5.945312 6.578125 -5.945312 C 6.472656 -5.84375 6.367188 -5.894531 6.261719 -5.894531 C 6.15625 -6.050781 6.261719 -6.210938 6.367188 -6.261719 Z M 6.367188 -6.261719 "/></g></g></g><g fill="#000000" fill-opacity="1"><g transform="translate(145.461161, 92.082078)"><g><path d="M 4.949219 -6.105469 C 6.105469 -6.472656 7.210938 -6.945312 8.316406 -7.421875 C 9.105469 -7.84375 10.050781 -8.105469 10.683594 -8.683594 C 11.367188 -9.210938 11.84375 -10.105469 12.261719 -10.789062 C 12.945312 -11.945312 12.683594 -13.789062 11.738281 -14.632812 L 11.738281 -14.472656 C 10.683594 -15.316406 9.527344 -15.789062 8.316406 -15.789062 C 7.84375 -15.789062 7.367188 -15.738281 6.894531 -15.578125 C 5.367188 -15.15625 3.894531 -14.367188 2.421875 -13.683594 C 2.316406 -13.632812 2.261719 -13.472656 2.15625 -13.367188 C 2.367188 -13.15625 2.632812 -12.84375 2.894531 -12.894531 C 3.789062 -13.105469 4.632812 -13.472656 5.578125 -13.738281 C 5.367188 -13.472656 5.15625 -13.210938 5 -12.945312 C 4 -11.105469 2.949219 -9.210938 2 -7.316406 C 0.683594 -4.894531 -0.578125 -2.421875 -1.738281 0.0507812 C -2.15625 0.894531 -2.261719 1.894531 -2.472656 2.894531 C -2.472656 3 -2.367188 3.15625 -2.261719 3.261719 C -2.261719 3.261719 -2.105469 3.210938 -2 3.15625 C -1.15625 1.949219 -0.261719 0.84375 0.472656 -0.421875 C 0.789062 -0.949219 0.84375 -1.632812 1.578125 -1.84375 C 1.632812 -1.84375 1.632812 -1.949219 1.632812 -2.050781 C 1.738281 -2.316406 1.84375 -2.578125 1.894531 -2.894531 L 1.894531 -3.316406 C 2.105469 -3.527344 2.367188 -3.894531 2.632812 -4.210938 L 2.472656 -3.894531 L 2.632812 -3.894531 C 2.894531 -4.367188 3.105469 -4.894531 3.316406 -5.472656 C 3.527344 -4.316406 3.738281 -3.15625 4 -1.949219 C 4.421875 -0.472656 4.738281 1.050781 5.367188 2.472656 C 5.738281 3.367188 6.632812 4.105469 7.367188 4.894531 C 7.421875 4.949219 7.738281 4.84375 7.894531 4.789062 C 7.894531 4.789062 7.945312 4.632812 7.894531 4.578125 C 7.738281 4.261719 7.472656 4.050781 7.316406 3.789062 C 6.945312 3.15625 6.578125 2.527344 6.261719 1.894531 C 6.105469 1.632812 6.105469 1.261719 5.945312 0.894531 C 5.84375 0.578125 5.632812 0.210938 5.578125 -0.105469 C 5.367188 -1.632812 5.105469 -3.210938 4.949219 -4.738281 C 4.949219 -4.84375 5.050781 -4.949219 5.105469 -5.105469 C 5.683594 -5.632812 4.894531 -5.789062 4.949219 -6.105469 Z M 4.894531 -8.367188 C 4.894531 -8.367188 4.894531 -8.316406 4.949219 -8.105469 C 5.050781 -8.683594 5.050781 -9.050781 5.261719 -9.421875 C 5.527344 -9.945312 5.84375 -10.527344 6.15625 -11.105469 C 6.578125 -12.050781 7.050781 -13 6.421875 -14.367188 C 7.15625 -14.421875 7.84375 -14.472656 8.527344 -14.472656 C 9.367188 -14.472656 10.421875 -14.367188 11.050781 -13.738281 C 11.683594 -13.105469 11.472656 -11.945312 10.945312 -11.105469 L 10.945312 -11.050781 C 9.367188 -8.632812 7.050781 -7.316406 4.316406 -6.632812 C 4.210938 -6.632812 4.050781 -6.894531 3.949219 -7 L 4.105469 -7.15625 C 4.15625 -7.105469 4.210938 -7.050781 4.316406 -6.894531 C 4.578125 -7.421875 4.738281 -7.945312 4.894531 -8.367188 Z M 2.683594 -4.84375 C 2.84375 -5.050781 2.894531 -5.15625 3.050781 -5.472656 L 3.050781 -4.84375 Z M 2.683594 -4.84375 "/></g></g></g><g fill="#000000" fill-opacity="1"><g transform="translate(155.668573, 92.082078)"><g><path d="M 10.632812 -8.210938 C 10.367188 -8.261719 10.105469 -8.316406 9.84375 -8.316406 L 9 -8.316406 C 7.683594 -8.316406 6.421875 -8.15625 5.105469 -8 C 5.527344 -8.84375 5.894531 -9.632812 6.261719 -10.421875 C 6.472656 -10.789062 6.738281 -11.15625 6.84375 -11.527344 C 6.945312 -11.894531 7.15625 -12 7.472656 -12.050781 C 7.683594 -12.105469 7.894531 -12.105469 8.105469 -12.105469 L 9.84375 -12.261719 C 10 -12.261719 10.15625 -12.316406 10.316406 -12.316406 C 11.261719 -12.421875 13.578125 -12.738281 14.210938 -13.15625 C 14.578125 -13.472656 15 -13.578125 15.421875 -13.683594 C 15.683594 -13.738281 15.945312 -13.84375 16.210938 -13.945312 C 16.261719 -13.945312 16.316406 -14 16.367188 -14.050781 C 16.316406 -14.105469 16.261719 -14.15625 16.210938 -14.15625 L 16.367188 -14.527344 C 15.894531 -14.578125 15.421875 -14.632812 14.945312 -14.632812 C 13.105469 -14.632812 11.261719 -14.578125 9.421875 -14.527344 C 8.945312 -14.527344 8.472656 -14.527344 8 -14.472656 L 7.105469 -14.472656 C 6.945312 -14.472656 6.738281 -14.472656 6.578125 -14.421875 C 6.210938 -14.367188 5.84375 -14.316406 5.472656 -14.316406 C 5 -14.316406 4.472656 -14.367188 4 -14.367188 C 3.683594 -14.367188 3.421875 -14.210938 3.472656 -14 C 3.632812 -13.472656 3.894531 -13 4.367188 -12.738281 C 4.683594 -12.578125 5.050781 -12.472656 5.367188 -12.316406 C 5.15625 -12.050781 4.949219 -11.789062 4.738281 -11.472656 C 4.316406 -10.789062 3.894531 -10.050781 3.472656 -9.316406 C 3.210938 -8.894531 2.949219 -8.472656 2.738281 -8.050781 C 2.683594 -7.945312 2.632812 -7.738281 2.632812 -7.738281 C 2.894531 -7.632812 2.683594 -7.527344 2.632812 -7.421875 C 2.367188 -7.050781 2.105469 -6.683594 1.894531 -6.261719 C 1.316406 -5.261719 0.738281 -4.210938 0.15625 -3.210938 C -0.105469 -2.789062 -0.367188 -2.367188 -0.578125 -1.949219 C -0.84375 -1.472656 -1.050781 -0.949219 -1.316406 -0.472656 C -1.789062 0.421875 -2.261719 1.261719 -3.421875 1.421875 C -3.789062 1.472656 -3.84375 1.949219 -3.578125 2.210938 C -3.527344 2.261719 -3.472656 2.367188 -3.367188 2.421875 C -3.105469 2.527344 -3.050781 2.738281 -3 3 C -2.894531 3.527344 -2.894531 3.527344 -2.367188 3.527344 C -2 3.527344 -1.789062 3.421875 -1.578125 3.105469 C -1.421875 2.894531 -1.367188 2.894531 -1.105469 2.894531 L -1.421875 3.367188 L -1.261719 3.367188 L -0.949219 2.894531 C -0.738281 2.683594 -0.578125 2.421875 -0.367188 2.316406 C 0.261719 2.050781 0.949219 1.894531 1.578125 1.683594 C 1.84375 1.632812 2.105469 1.632812 2.316406 1.527344 L 3.894531 0.894531 C 4.15625 0.789062 4.421875 0.738281 4.683594 0.632812 L 7.683594 -0.472656 C 8.15625 -0.632812 8.632812 -0.84375 8.84375 -1.367188 C 8.945312 -1.316406 9.050781 -1.261719 9.15625 -1.261719 C 9.472656 -1.261719 9.738281 -1.527344 9.894531 -1.949219 C 6.738281 -1.789062 3.738281 -0.894531 0.738281 0 C 0.894531 -0.261719 1.050781 -0.472656 1.210938 -0.683594 L 2.15625 -2.261719 L 3.105469 -4.15625 C 3.472656 -4.84375 3.84375 -5.527344 4.210938 -6.15625 C 4.261719 -6.261719 4.421875 -6.316406 4.527344 -6.316406 C 5 -6.261719 5.472656 -6.15625 5.945312 -6.15625 C 6.683594 -6.210938 7.421875 -6.316406 8.15625 -6.421875 C 8.527344 -6.472656 8.945312 -6.527344 9.050781 -7 C 9.050781 -7.050781 9.105469 -7.050781 9.15625 -7.105469 L 9.316406 -7.261719 L 8.84375 -7.261719 C 8.945312 -7.421875 9.050781 -7.578125 9.15625 -7.632812 L 9.316406 -7.632812 C 9.421875 -7.632812 9.527344 -7.632812 9.683594 -7.578125 C 9.527344 -7.472656 9.472656 -7.421875 9.367188 -7.367188 C 9.472656 -7.316406 9.527344 -7.261719 9.578125 -7.261719 L 10.683594 -7.738281 C 10.738281 -7.789062 10.738281 -8 10.738281 -8.105469 C 10.738281 -8.15625 10.683594 -8.210938 10.632812 -8.210938 Z M 8.632812 -1.472656 C 8.738281 -1.472656 8.789062 -1.421875 8.894531 -1.421875 C 8.683594 -1.261719 8.472656 -1.105469 8.210938 -0.894531 C 8.261719 -1.050781 8.261719 -1.15625 8.316406 -1.261719 L 8.367188 -1.261719 C 8.472656 -1.421875 8.527344 -1.472656 8.632812 -1.472656 Z M 8.632812 -1.472656 "/></g></g></g><g fill="#000000" fill-opacity="1"><g transform="translate(167.664913, 92.082078)"><g/></g></g><g fill="#000000" fill-opacity="1"><g transform="translate(172.716004, 92.082078)"><g><path d="M -4 10.050781 C -3.84375 9.945312 -3.683594 9.894531 -3.527344 9.789062 C -3.472656 9.789062 -3.421875 9.738281 -3.421875 9.683594 C -3.367188 9.578125 -3.367188 9.472656 -3.316406 9.421875 C -3.15625 9.261719 -2.949219 9.105469 -2.789062 8.945312 C -2 8.050781 -1.210938 7.261719 -0.316406 6.472656 C -0.105469 6.316406 0.105469 6.105469 0.367188 6 C 0.789062 5.84375 1.15625 5.632812 1.367188 5.210938 C 1.421875 5.15625 1.527344 5.105469 1.578125 5.050781 C 1.789062 4.894531 2.050781 4.738281 2.261719 4.527344 C 2.578125 4.261719 2.894531 4 3.15625 3.683594 C 3.210938 3.578125 3.316406 3.578125 3.421875 3.578125 C 3.527344 3.578125 3.683594 3.632812 3.84375 3.632812 C 3.894531 3.632812 3.949219 3.632812 4 3.578125 C 4.105469 3.527344 4.15625 3.632812 4.15625 3.472656 C 4.15625 3.367188 4.15625 3.210938 4.210938 3.105469 C 4.316406 3 4.367188 2.84375 4.527344 2.84375 C 4.578125 2.84375 4.683594 2.84375 4.738281 2.894531 C 4.632812 2.949219 4.578125 2.949219 4.578125 2.949219 L 4.421875 3.105469 L 4.578125 3.261719 C 4.632812 3.316406 4.632812 3.367188 4.683594 3.421875 C 5.105469 3.105469 5.578125 2.738281 6 2.367188 C 6.105469 2.261719 6.15625 2.105469 6.210938 2 C 6.683594 1.789062 7 1.472656 7.261719 1.105469 C 7.15625 1.210938 7 1.316406 6.84375 1.316406 C 6.789062 1.316406 6.683594 1.316406 6.632812 1.261719 C 6.789062 1.210938 6.894531 1.15625 7 1.105469 C 7.15625 1 7.421875 1.050781 7.316406 0.738281 L 7.367188 0.738281 C 7.527344 0.683594 7.683594 0.632812 7.894531 0.527344 L 7.738281 0.84375 C 8.367188 0.316406 9.050781 -0.210938 9.683594 -0.789062 C 9.84375 -0.949219 10 -1.15625 10.15625 -1.367188 C 10.15625 -1.367188 10.261719 -1.316406 10.316406 -1.367188 C 10.578125 -1.527344 10.84375 -1.683594 11.050781 -1.894531 C 11.316406 -2.105469 11.527344 -2.472656 11.84375 -2.578125 C 12.15625 -2.683594 13.84375 -4.105469 14.210938 -4.421875 C 14.527344 -4.683594 14.84375 -4.949219 15.210938 -5.210938 C 15.527344 -5.421875 15.84375 -5.683594 16.210938 -5.84375 C 16.472656 -5.945312 16.683594 -6.105469 16.894531 -6.316406 C 17.15625 -6.632812 17.421875 -7 17.738281 -7.15625 C 18.105469 -7.316406 18.105469 -7.683594 18.367188 -7.894531 C 18.421875 -7.945312 18.472656 -8.050781 18.578125 -8.050781 C 18.578125 -8.050781 18.632812 -8.050781 18.683594 -8 C 18.738281 -8 18.789062 -8.050781 18.839844 -8.105469 C 18.632812 -8.316406 18.894531 -8.421875 19 -8.527344 C 19.527344 -9.105469 20.15625 -9.632812 20.578125 -10.316406 C 20.738281 -10.578125 21 -10.738281 21.15625 -10.945312 C 21.316406 -11.15625 21.578125 -11.316406 21.527344 -11.683594 C 21.527344 -11.789062 21.683594 -11.945312 21.789062 -12 C 22.15625 -12.15625 22.578125 -12.261719 22.683594 -12.738281 C 22.683594 -12.789062 22.632812 -12.894531 22.632812 -12.945312 L 22.472656 -12.789062 C 22.421875 -12.738281 22.367188 -12.683594 22.316406 -12.683594 C 22.261719 -12.683594 22.261719 -12.738281 22.15625 -12.789062 L 22.632812 -13.261719 C 22.738281 -13.367188 22.894531 -13.472656 22.945312 -13.578125 C 23.050781 -13.894531 23.105469 -14.261719 23.210938 -14.632812 C 23.421875 -15.367188 23.367188 -16.105469 23.316406 -16.839844 L 23.578125 -17.421875 C 23.210938 -20.894531 20.945312 -21.789062 17.894531 -21.789062 C 16.472656 -21.789062 15.105469 -21.578125 13.683594 -21.316406 C 11.84375 -20.839844 9.789062 -19.894531 8.105469 -18.945312 C 7.632812 -18.632812 7.210938 -18.210938 6.683594 -17.945312 C 5.789062 -17.472656 5.050781 -16.839844 4.316406 -16.210938 C 3.894531 -15.84375 3.84375 -15.316406 4.15625 -14.84375 C 4.261719 -14.683594 4.472656 -14.578125 4.632812 -14.578125 C 4.683594 -14.578125 4.738281 -14.578125 4.789062 -14.632812 C 7.210938 -16.789062 9.789062 -18.472656 12.789062 -19.578125 C 12.945312 -19.632812 12.945312 -19.527344 12.894531 -19.421875 L 12.261719 -18.15625 C 12.050781 -17.738281 11.84375 -17.316406 11.632812 -16.945312 L 10.210938 -14.738281 C 9.683594 -13.894531 9.15625 -13 8.632812 -12.15625 C 8.210938 -11.472656 7.738281 -10.789062 7.261719 -10.105469 C 6.789062 -9.367188 6.316406 -8.632812 5.894531 -7.894531 C 5.261719 -6.84375 4.683594 -5.789062 4.050781 -4.738281 L 2.15625 -1.578125 C 1.632812 -0.683594 1.050781 0.15625 0.527344 1.050781 C 0.105469 1.738281 -0.261719 2.472656 -0.632812 3.210938 C -0.894531 3.683594 -1.105469 4.210938 -1.367188 4.683594 C -1.683594 5.261719 -2 5.894531 -2.421875 6.421875 C -3 7.15625 -3.683594 7.84375 -4.316406 8.578125 C -4.738281 9.105469 -5.15625 9.632812 -5.527344 10.15625 C -5.894531 10.683594 -5.894531 11.421875 -6.367188 11.945312 L -6.367188 12.105469 C -5.632812 11.367188 -4.789062 10.683594 -4 10.050781 Z M 1.367188 2.15625 C 1.472656 1.949219 1.527344 1.738281 1.632812 1.527344 C 1.738281 1.367188 1.789062 1.105469 2 1.105469 C 2.050781 1.105469 2.105469 1.105469 2.15625 1.15625 C 2.210938 1.15625 2.316406 1.050781 2.316406 1 C 2.367188 0.894531 2.421875 0.738281 2.367188 0.683594 C 2.210938 0.472656 2.316406 0.367188 2.472656 0.210938 C 2.683594 0.0507812 2.894531 -0.105469 3.050781 -0.261719 C 3.15625 -0.421875 3.261719 -0.527344 3.472656 -0.578125 C 3.632812 -0.632812 3.84375 -0.84375 3.894531 -1 C 4.050781 -1.367188 4.105469 -1.367188 4.472656 -1.367188 C 4.316406 -1.421875 4.15625 -1.472656 4 -1.578125 L 3.84375 -1.738281 C 3.894531 -1.789062 3.949219 -1.84375 4 -1.84375 C 4.105469 -1.789062 4.15625 -1.789062 4.210938 -1.84375 L 4.210938 -1.894531 L 4.527344 -2.683594 L 4.472656 -2.683594 C 4.472656 -2.738281 4.578125 -2.738281 4.578125 -2.738281 C 4.632812 -2.683594 4.683594 -2.578125 4.683594 -2.527344 C 4.894531 -2.789062 5 -3.105469 5.210938 -3.367188 C 5.316406 -3.527344 5.527344 -3.683594 5.738281 -3.789062 C 6 -3.949219 6.050781 -4.15625 6 -4.421875 C 5.945312 -4.632812 6 -4.683594 6.050781 -4.683594 C 6.105469 -4.683594 6.210938 -4.632812 6.316406 -4.578125 L 6.472656 -4.578125 C 6.367188 -4.683594 6.316406 -4.738281 6.316406 -4.789062 C 6.316406 -4.84375 6.367188 -4.949219 6.421875 -5 C 6.472656 -5.050781 6.578125 -5.050781 6.578125 -5.105469 C 6.789062 -5.578125 7.316406 -5.738281 7.527344 -6.15625 C 7.683594 -6.472656 7.789062 -6.789062 7.894531 -7.105469 C 7.894531 -7.15625 7.945312 -7.261719 8 -7.261719 C 8.367188 -7.316406 8.367188 -7.632812 8.527344 -7.894531 C 8.738281 -8.261719 8.945312 -8.632812 9.15625 -8.945312 C 9.472656 -9.421875 9.84375 -9.84375 10.15625 -10.316406 C 10.261719 -10.472656 10.527344 -10.578125 10.421875 -10.894531 C 10.367188 -11 10.683594 -11.210938 10.789062 -11.367188 C 10.894531 -11.527344 10.945312 -11.738281 11.050781 -11.945312 L 11.210938 -12.105469 C 11.316406 -12.261719 11.367188 -12.421875 11.421875 -12.578125 L 11.421875 -12.632812 C 11.683594 -12.894531 12.210938 -13.632812 12.367188 -13.945312 C 12.632812 -14.472656 12.945312 -15 13.210938 -15.527344 C 13.527344 -16.15625 13.84375 -16.789062 14.105469 -17.472656 C 14.261719 -17.789062 14.316406 -18.15625 14.367188 -18.527344 C 14.367188 -18.789062 14.210938 -19 14 -19.210938 C 13.632812 -19.578125 13.632812 -19.578125 14.15625 -19.683594 C 15.15625 -19.894531 16.210938 -19.945312 17.261719 -19.945312 C 18.894531 -19.945312 20.578125 -19.789062 21.738281 -18.472656 C 22.210938 -17.894531 22.210938 -17.15625 22.050781 -16.421875 L 21.945312 -16.316406 C 21.683594 -15.316406 21 -14.632812 20.316406 -13.945312 C 17.261719 -10.894531 14.105469 -8.105469 10.789062 -5.367188 C 9.84375 -4.578125 8.84375 -3.84375 7.894531 -3.050781 C 7.367188 -2.578125 6.894531 -2.050781 6.367188 -1.578125 L 4.15625 0.316406 C 3.578125 0.789062 3 1.261719 2.472656 1.789062 C 2.15625 2.105469 1.84375 2.15625 1.367188 2.15625 Z M 4.738281 2.683594 C 4.789062 2.632812 4.894531 2.578125 5 2.527344 L 5 2.738281 C 5.210938 2.632812 5.472656 2.632812 5.578125 2.316406 C 5.632812 2.210938 5.84375 2.15625 6 2.105469 L 6.105469 2.210938 C 5.789062 2.421875 5.527344 2.578125 5.261719 2.84375 L 5.210938 2.894531 C 5.15625 2.949219 5.105469 2.949219 5.050781 2.949219 C 4.949219 2.949219 4.84375 2.894531 4.738281 2.894531 C 4.738281 2.894531 4.683594 2.738281 4.738281 2.683594 Z M 0.84375 3.15625 L 1.316406 2.527344 C 1.367188 2.472656 1.527344 2.472656 1.632812 2.472656 C 1.683594 2.472656 1.738281 2.527344 1.789062 2.578125 C 1.738281 2.632812 1.683594 2.683594 1.632812 2.683594 L 1.578125 2.683594 C 1.261719 2.738281 1.15625 2.949219 1.050781 3.210938 C 1 3.261719 0.894531 3.316406 0.84375 3.367188 C 0.84375 3.316406 0.789062 3.210938 0.84375 3.15625 Z M 4.894531 -3.472656 L 5.050781 -3.472656 L 4.894531 -3 C 4.894531 -2.949219 4.84375 -2.894531 4.789062 -2.84375 C 4.789062 -2.894531 4.738281 -2.949219 4.738281 -3 L 4.578125 -3 Z M 8.050781 0.15625 C 8.105469 0.105469 8.15625 0 8.210938 0 C 8.316406 -0.0507812 8.421875 -0.0507812 8.527344 -0.0507812 C 8.421875 0 8.316406 0.105469 8.210938 0.15625 L 8.210938 0.210938 C 8.15625 0.210938 8.105469 0.15625 8.050781 0.15625 Z M -1 7.894531 C -0.84375 7.789062 -0.683594 7.683594 -0.527344 7.527344 L -0.527344 7.472656 C -0.683594 7.632812 -0.84375 7.738281 -1 7.84375 L -1.105469 7.84375 C -1.050781 7.84375 -1 7.894531 -1 7.894531 Z M -1 7.894531 "/></g></g></g><g fill="#000000" fill-opacity="1"><g transform="translate(191.499747, 92.082078)"><g><path d="M 10.632812 -8.210938 C 10.367188 -8.261719 10.105469 -8.316406 9.84375 -8.316406 L 9 -8.316406 C 7.683594 -8.316406 6.421875 -8.15625 5.105469 -8 C 5.527344 -8.84375 5.894531 -9.632812 6.261719 -10.421875 C 6.472656 -10.789062 6.738281 -11.15625 6.84375 -11.527344 C 6.945312 -11.894531 7.15625 -12 7.472656 -12.050781 C 7.683594 -12.105469 7.894531 -12.105469 8.105469 -12.105469 L 9.84375 -12.261719 C 10 -12.261719 10.15625 -12.316406 10.316406 -12.316406 C 11.261719 -12.421875 13.578125 -12.738281 14.210938 -13.15625 C 14.578125 -13.472656 15 -13.578125 15.421875 -13.683594 C 15.683594 -13.738281 15.945312 -13.84375 16.210938 -13.945312 C 16.261719 -13.945312 16.316406 -14 16.367188 -14.050781 C 16.316406 -14.105469 16.261719 -14.15625 16.210938 -14.15625 L 16.367188 -14.527344 C 15.894531 -14.578125 15.421875 -14.632812 14.945312 -14.632812 C 13.105469 -14.632812 11.261719 -14.578125 9.421875 -14.527344 C 8.945312 -14.527344 8.472656 -14.527344 8 -14.472656 L 7.105469 -14.472656 C 6.945312 -14.472656 6.738281 -14.472656 6.578125 -14.421875 C 6.210938 -14.367188 5.84375 -14.316406 5.472656 -14.316406 C 5 -14.316406 4.472656 -14.367188 4 -14.367188 C 3.683594 -14.367188 3.421875 -14.210938 3.472656 -14 C 3.632812 -13.472656 3.894531 -13 4.367188 -12.738281 C 4.683594 -12.578125 5.050781 -12.472656 5.367188 -12.316406 C 5.15625 -12.050781 4.949219 -11.789062 4.738281 -11.472656 C 4.316406 -10.789062 3.894531 -10.050781 3.472656 -9.316406 C 3.210938 -8.894531 2.949219 -8.472656 2.738281 -8.050781 C 2.683594 -7.945312 2.632812 -7.738281 2.632812 -7.738281 C 2.894531 -7.632812 2.683594 -7.527344 2.632812 -7.421875 C 2.367188 -7.050781 2.105469 -6.683594 1.894531 -6.261719 C 1.316406 -5.261719 0.738281 -4.210938 0.15625 -3.210938 C -0.105469 -2.789062 -0.367188 -2.367188 -0.578125 -1.949219 C -0.84375 -1.472656 -1.050781 -0.949219 -1.316406 -0.472656 C -1.789062 0.421875 -2.261719 1.261719 -3.421875 1.421875 C -3.789062 1.472656 -3.84375 1.949219 -3.578125 2.210938 C -3.527344 2.261719 -3.472656 2.367188 -3.367188 2.421875 C -3.105469 2.527344 -3.050781 2.738281 -3 3 C -2.894531 3.527344 -2.894531 3.527344 -2.367188 3.527344 C -2 3.527344 -1.789062 3.421875 -1.578125 3.105469 C -1.421875 2.894531 -1.367188 2.894531 -1.105469 2.894531 L -1.421875 3.367188 L -1.261719 3.367188 L -0.949219 2.894531 C -0.738281 2.683594 -0.578125 2.421875 -0.367188 2.316406 C 0.261719 2.050781 0.949219 1.894531 1.578125 1.683594 C 1.84375 1.632812 2.105469 1.632812 2.316406 1.527344 L 3.894531 0.894531 C 4.15625 0.789062 4.421875 0.738281 4.683594 0.632812 L 7.683594 -0.472656 C 8.15625 -0.632812 8.632812 -0.84375 8.84375 -1.367188 C 8.945312 -1.316406 9.050781 -1.261719 9.15625 -1.261719 C 9.472656 -1.261719 9.738281 -1.527344 9.894531 -1.949219 C 6.738281 -1.789062 3.738281 -0.894531 0.738281 0 C 0.894531 -0.261719 1.050781 -0.472656 1.210938 -0.683594 L 2.15625 -2.261719 L 3.105469 -4.15625 C 3.472656 -4.84375 3.84375 -5.527344 4.210938 -6.15625 C 4.261719 -6.261719 4.421875 -6.316406 4.527344 -6.316406 C 5 -6.261719 5.472656 -6.15625 5.945312 -6.15625 C 6.683594 -6.210938 7.421875 -6.316406 8.15625 -6.421875 C 8.527344 -6.472656 8.945312 -6.527344 9.050781 -7 C 9.050781 -7.050781 9.105469 -7.050781 9.15625 -7.105469 L 9.316406 -7.261719 L 8.84375 -7.261719 C 8.945312 -7.421875 9.050781 -7.578125 9.15625 -7.632812 L 9.316406 -7.632812 C 9.421875 -7.632812 9.527344 -7.632812 9.683594 -7.578125 C 9.527344 -7.472656 9.472656 -7.421875 9.367188 -7.367188 C 9.472656 -7.316406 9.527344 -7.261719 9.578125 -7.261719 L 10.683594 -7.738281 C 10.738281 -7.789062 10.738281 -8 10.738281 -8.105469 C 10.738281 -8.15625 10.683594 -8.210938 10.632812 -8.210938 Z M 8.632812 -1.472656 C 8.738281 -1.472656 8.789062 -1.421875 8.894531 -1.421875 C 8.683594 -1.261719 8.472656 -1.105469 8.210938 -0.894531 C 8.261719 -1.050781 8.261719 -1.15625 8.316406 -1.261719 L 8.367188 -1.261719 C 8.472656 -1.421875 8.527344 -1.472656 8.632812 -1.472656 Z M 8.632812 -1.472656 "/></g></g></g><g fill="#000000" fill-opacity="1"><g transform="translate(203.496087, 92.082078)"><g><path d="M -1.738281 4.050781 C -1.527344 4.050781 -1.261719 3.949219 -1 3.84375 C 0.105469 3.316406 0.789062 2.316406 1.578125 1.421875 C 2.050781 0.84375 2.421875 0.15625 2.894531 -0.421875 C 3.789062 -1.421875 4.421875 -2.578125 5.050781 -3.738281 C 5.105469 -3.789062 5.050781 -3.894531 5.050781 -4 C 5.050781 -4.15625 5.15625 -4.261719 5.261719 -4.367188 C 5.367188 -4.472656 5.472656 -4.578125 5.527344 -4.683594 C 5.578125 -4.84375 5.578125 -5.050781 5.632812 -5.210938 C 5.84375 -5.683594 6.105469 -6.15625 6.367188 -6.632812 C 6.421875 -6.683594 6.578125 -6.683594 6.683594 -6.738281 L 6.683594 -6.578125 L 6.84375 -6.894531 L 6.683594 -7.050781 L 7 -7.527344 L 7.15625 -7.367188 L 7.367188 -7.683594 C 7.527344 -8.050781 7.738281 -8.421875 7.945312 -8.84375 L 7.945312 -8.632812 C 8 -8.894531 8.050781 -9.15625 8.15625 -9.421875 C 8.261719 -9.738281 8.421875 -10 8.578125 -10.261719 C 8.632812 -10.316406 8.683594 -10.472656 8.683594 -10.472656 L 8.789062 -10.472656 C 9 -10.472656 8.945312 -10.683594 9.050781 -10.84375 C 9.210938 -11.050781 9.316406 -11.316406 9.421875 -11.527344 C 9.683594 -12.050781 10 -12.578125 10.261719 -13.105469 C 10.527344 -13.632812 10.789062 -14.15625 11 -14.738281 C 11.15625 -15.050781 11.210938 -15.421875 11.316406 -15.789062 L 11.105469 -16.210938 C 10.738281 -15.738281 10.316406 -15.316406 10 -14.789062 C 8.945312 -13.261719 7.683594 -11.316406 6.738281 -9.683594 C 6.316406 -9 5.945312 -8.261719 5.527344 -7.578125 L 1.894531 -1.894531 C 1.472656 -1.261719 1.050781 -0.683594 0.632812 -0.0507812 L 0.472656 -0.0507812 C 0.472656 -0.15625 0.472656 -0.261719 0.527344 -0.367188 C 0.578125 -0.472656 0.632812 -0.632812 0.632812 -0.738281 C 0.738281 -0.84375 0.84375 -0.949219 0.894531 -1.105469 C 0.949219 -1.210938 1 -1.367188 1.050781 -1.527344 C 1.105469 -1.578125 1.15625 -1.632812 1.15625 -1.683594 C 1.15625 -1.683594 1.050781 -1.738281 1 -1.738281 C 1.105469 -1.949219 1.15625 -2.105469 1.210938 -2.316406 C 1.316406 -2.738281 1.632812 -3.105469 1.527344 -3.578125 L 1.210938 -2.949219 C 1.15625 -2.738281 1.15625 -2.527344 1.105469 -2.316406 L 0.949219 -2.316406 C 0.949219 -2.421875 0.894531 -2.527344 0.894531 -2.632812 C 1.050781 -3.316406 1.210938 -4 1.421875 -4.683594 C 1.527344 -5 1.738281 -5.261719 1.894531 -5.527344 C 1.894531 -5.738281 1.949219 -5.945312 2 -6.105469 C 2.15625 -6.472656 2.367188 -6.84375 2.527344 -7.210938 C 2.578125 -7.367188 2.527344 -7.578125 2.578125 -7.738281 C 2.632812 -8.105469 2.738281 -8.472656 2.84375 -8.789062 C 2.894531 -9 3 -9.210938 3.105469 -9.421875 L 3.261719 -9.421875 L 3.105469 -8.789062 C 3.210938 -8.894531 3.261719 -9 3.261719 -9.105469 C 3.367188 -9.84375 3.472656 -10.578125 3.472656 -11.316406 C 3.472656 -11.945312 3.421875 -12.632812 2.894531 -13.050781 C 2.527344 -13.367188 2.105469 -13.578125 1.632812 -13.894531 C 1.527344 -13.578125 1.421875 -13.367188 1.367188 -13.15625 C 1.105469 -11.894531 0.949219 -10.632812 0.632812 -9.421875 C -0.105469 -6.789062 -0.894531 -4.15625 -1.632812 -1.527344 C -2.050781 0 -2.472656 1.527344 -2.367188 3.15625 C -2.367188 3.261719 -2.472656 3.367188 -2.527344 3.472656 L -2.527344 3.632812 C -2.261719 3.894531 -2 4.050781 -1.738281 4.050781 Z M 0.738281 -1.527344 L 0.84375 -1.632812 C 0.84375 -1.683594 0.949219 -1.738281 1 -1.738281 C 0.894531 -1.421875 0.789062 -1.050781 0.632812 -0.738281 L 0.527344 -0.738281 C 0.578125 -1 0.632812 -1.261719 0.738281 -1.527344 Z M 1.578125 -3.050781 L 2.050781 -3.84375 L 1.894531 -3.84375 L 1.894531 -4 Z M 1.578125 -3.050781 "/></g></g></g><g fill="#000000" fill-opacity="1"><g transform="translate(214.28227, 92.082078)"><g><path d="M 10.632812 -8.210938 C 10.367188 -8.261719 10.105469 -8.316406 9.84375 -8.316406 L 9 -8.316406 C 7.683594 -8.316406 6.421875 -8.15625 5.105469 -8 C 5.527344 -8.84375 5.894531 -9.632812 6.261719 -10.421875 C 6.472656 -10.789062 6.738281 -11.15625 6.84375 -11.527344 C 6.945312 -11.894531 7.15625 -12 7.472656 -12.050781 C 7.683594 -12.105469 7.894531 -12.105469 8.105469 -12.105469 L 9.84375 -12.261719 C 10 -12.261719 10.15625 -12.316406 10.316406 -12.316406 C 11.261719 -12.421875 13.578125 -12.738281 14.210938 -13.15625 C 14.578125 -13.472656 15 -13.578125 15.421875 -13.683594 C 15.683594 -13.738281 15.945312 -13.84375 16.210938 -13.945312 C 16.261719 -13.945312 16.316406 -14 16.367188 -14.050781 C 16.316406 -14.105469 16.261719 -14.15625 16.210938 -14.15625 L 16.367188 -14.527344 C 15.894531 -14.578125 15.421875 -14.632812 14.945312 -14.632812 C 13.105469 -14.632812 11.261719 -14.578125 9.421875 -14.527344 C 8.945312 -14.527344 8.472656 -14.527344 8 -14.472656 L 7.105469 -14.472656 C 6.945312 -14.472656 6.738281 -14.472656 6.578125 -14.421875 C 6.210938 -14.367188 5.84375 -14.316406 5.472656 -14.316406 C 5 -14.316406 4.472656 -14.367188 4 -14.367188 C 3.683594 -14.367188 3.421875 -14.210938 3.472656 -14 C 3.632812 -13.472656 3.894531 -13 4.367188 -12.738281 C 4.683594 -12.578125 5.050781 -12.472656 5.367188 -12.316406 C 5.15625 -12.050781 4.949219 -11.789062 4.738281 -11.472656 C 4.316406 -10.789062 3.894531 -10.050781 3.472656 -9.316406 C 3.210938 -8.894531 2.949219 -8.472656 2.738281 -8.050781 C 2.683594 -7.945312 2.632812 -7.738281 2.632812 -7.738281 C 2.894531 -7.632812 2.683594 -7.527344 2.632812 -7.421875 C 2.367188 -7.050781 2.105469 -6.683594 1.894531 -6.261719 C 1.316406 -5.261719 0.738281 -4.210938 0.15625 -3.210938 C -0.105469 -2.789062 -0.367188 -2.367188 -0.578125 -1.949219 C -0.84375 -1.472656 -1.050781 -0.949219 -1.316406 -0.472656 C -1.789062 0.421875 -2.261719 1.261719 -3.421875 1.421875 C -3.789062 1.472656 -3.84375 1.949219 -3.578125 2.210938 C -3.527344 2.261719 -3.472656 2.367188 -3.367188 2.421875 C -3.105469 2.527344 -3.050781 2.738281 -3 3 C -2.894531 3.527344 -2.894531 3.527344 -2.367188 3.527344 C -2 3.527344 -1.789062 3.421875 -1.578125 3.105469 C -1.421875 2.894531 -1.367188 2.894531 -1.105469 2.894531 L -1.421875 3.367188 L -1.261719 3.367188 L -0.949219 2.894531 C -0.738281 2.683594 -0.578125 2.421875 -0.367188 2.316406 C 0.261719 2.050781 0.949219 1.894531 1.578125 1.683594 C 1.84375 1.632812 2.105469 1.632812 2.316406 1.527344 L 3.894531 0.894531 C 4.15625 0.789062 4.421875 0.738281 4.683594 0.632812 L 7.683594 -0.472656 C 8.15625 -0.632812 8.632812 -0.84375 8.84375 -1.367188 C 8.945312 -1.316406 9.050781 -1.261719 9.15625 -1.261719 C 9.472656 -1.261719 9.738281 -1.527344 9.894531 -1.949219 C 6.738281 -1.789062 3.738281 -0.894531 0.738281 0 C 0.894531 -0.261719 1.050781 -0.472656 1.210938 -0.683594 L 2.15625 -2.261719 L 3.105469 -4.15625 C 3.472656 -4.84375 3.84375 -5.527344 4.210938 -6.15625 C 4.261719 -6.261719 4.421875 -6.316406 4.527344 -6.316406 C 5 -6.261719 5.472656 -6.15625 5.945312 -6.15625 C 6.683594 -6.210938 7.421875 -6.316406 8.15625 -6.421875 C 8.527344 -6.472656 8.945312 -6.527344 9.050781 -7 C 9.050781 -7.050781 9.105469 -7.050781 9.15625 -7.105469 L 9.316406 -7.261719 L 8.84375 -7.261719 C 8.945312 -7.421875 9.050781 -7.578125 9.15625 -7.632812 L 9.316406 -7.632812 C 9.421875 -7.632812 9.527344 -7.632812 9.683594 -7.578125 C 9.527344 -7.472656 9.472656 -7.421875 9.367188 -7.367188 C 9.472656 -7.316406 9.527344 -7.261719 9.578125 -7.261719 L 10.683594 -7.738281 C 10.738281 -7.789062 10.738281 -8 10.738281 -8.105469 C 10.738281 -8.15625 10.683594 -8.210938 10.632812 -8.210938 Z M 8.632812 -1.472656 C 8.738281 -1.472656 8.789062 -1.421875 8.894531 -1.421875 C 8.683594 -1.261719 8.472656 -1.105469 8.210938 -0.894531 C 8.261719 -1.050781 8.261719 -1.15625 8.316406 -1.261719 L 8.367188 -1.261719 C 8.472656 -1.421875 8.527344 -1.472656 8.632812 -1.472656 Z M 8.632812 -1.472656 "/></g></g></g><g fill="#000000" fill-opacity="1"><g transform="translate(226.27861, 92.082078)"><g><path d="M 6.316406 -0.316406 L 6.472656 -0.683594 C 6.210938 -0.789062 5.945312 -0.789062 5.683594 -0.789062 C 3.367188 -0.789062 -0.789062 0.949219 -2.894531 1.789062 C -2.949219 1.683594 -3 1.578125 -3 1.527344 L -2.632812 1.15625 C -2.105469 0.632812 -1.789062 0.210938 -1.367188 -0.421875 L -0.421875 -2 L -0.316406 -2 L -0.15625 -1.84375 C 0.105469 -2.050781 0.105469 -2.050781 0.0507812 -2.367188 C 0 -2.683594 0.15625 -2.949219 0.367188 -2.949219 C 0.421875 -3.105469 0.421875 -3.261719 0.421875 -3.421875 C 0.472656 -3.367188 0.527344 -3.316406 0.578125 -3.15625 C 0.894531 -3.632812 1.210938 -4.050781 1.472656 -4.472656 C 1.789062 -5.105469 2.050781 -5.738281 2.367188 -6.367188 C 2.472656 -6.527344 2.632812 -6.683594 2.738281 -6.84375 L 3.527344 -8.105469 C 3.527344 -8.15625 3.578125 -8.210938 3.632812 -8.261719 C 3.789062 -8.527344 4 -8.789062 4.15625 -9.050781 L 4.789062 -10.472656 C 4.894531 -10.738281 5 -11 5.210938 -11.261719 C 5.472656 -11.632812 6 -13 6.050781 -13.421875 C 6.105469 -13.683594 6.050781 -14 6.050781 -14.316406 C 6.050781 -14.894531 5.789062 -15.316406 5.316406 -15.632812 L 4.84375 -15.945312 C 4.738281 -15.84375 4.578125 -15.738281 4.527344 -15.578125 C 4.421875 -15.316406 4.367188 -15 4.261719 -14.738281 C 4.050781 -14.105469 3.894531 -13.421875 3.578125 -12.84375 C 2.949219 -11.578125 2.210938 -10.316406 1.527344 -9.050781 L -0.367188 -5.421875 C -0.578125 -5 -0.789062 -4.578125 -0.949219 -4.210938 C -1.050781 -4.050781 -1.105469 -4 -1.15625 -3.949219 L -2.578125 -1.421875 C -2.894531 -0.789062 -3.261719 -0.15625 -3.578125 0.472656 C -3.738281 0.789062 -3.894531 1.105469 -3.84375 1.472656 C -3.84375 1.578125 -3.949219 1.738281 -4 1.84375 C -4.050781 2 -4.15625 2.15625 -4.15625 2.316406 C -4.15625 2.578125 -4.316406 2.683594 -4.527344 2.789062 C -4.894531 2.949219 -5.261719 3.15625 -5.632812 3.316406 C -5.527344 3.84375 -5.421875 4 -4.949219 4.105469 C -4.894531 4.15625 -4.367188 4.210938 -4.316406 4.210938 C -4.210938 4.210938 -4.105469 4.15625 -4 4 C -4 3.949219 -3.949219 3.949219 -3.894531 3.949219 C -3.632812 3.84375 -3.316406 3.738281 -3.050781 3.578125 C -2.738281 3.367188 -2.316406 3.316406 -2.15625 2.894531 L -2.050781 2.894531 C -1.84375 2.789062 -1.632812 2.738281 -1.472656 2.632812 C -1.261719 2.472656 -1.105469 2.367188 -0.894531 2.367188 C -0.789062 2.367188 -0.683594 2.367188 -0.578125 2.421875 C -0.472656 2.105469 0.472656 1.632812 0.84375 1.632812 C 0.949219 1.632812 1.050781 1.632812 1.105469 1.578125 C 1.367188 1.367188 1.632812 1.15625 2.050781 1.15625 C 2.261719 1.15625 2.472656 1.15625 2.632812 1.050781 C 3 0.683594 3.261719 0.578125 3.738281 0.578125 C 3.84375 0.527344 3.894531 0.472656 4 0.421875 L 4.105469 0.367188 C 4.210938 0.15625 4.367188 0.105469 4.421875 0.210938 C 4.527344 0.316406 4.578125 0.367188 4.683594 0.367188 C 4.738281 0.367188 4.84375 0.316406 4.894531 0.316406 L 6.632812 0.15625 C 6.738281 0.15625 6.84375 0.0507812 6.945312 0 L 6.945312 -0.15625 Z M -3.894531 2.261719 C -3.894531 2.261719 -4 2.261719 -4.050781 2.210938 L -4.050781 2.105469 C -3.949219 1.84375 -3.789062 1.632812 -3.683594 1.421875 C -3.738281 1.632812 -3.738281 1.84375 -3.789062 2 L -3.632812 1.949219 C -3.683594 2.050781 -3.789062 2.15625 -3.894531 2.261719 Z M -3.894531 2.261719 "/></g></g></g><g fill="#000000" fill-opacity="1"><g transform="translate(234.960172, 92.082078)"><g><path d="M -2.738281 -0.472656 C -2.683594 0.421875 -2.105469 1.316406 -1.105469 1.316406 C -0.894531 1.316406 -0.738281 1.261719 -0.632812 1.15625 C -0.261719 0.84375 0.210938 0.789062 0.632812 0.683594 C 2 0.15625 3.578125 -0.683594 4.472656 -1.894531 C 4.84375 -2.316406 5.15625 -2.789062 5.527344 -3.210938 C 5.632812 -3.367188 5.683594 -3.261719 5.683594 -3.105469 L 5.527344 -2.949219 C 5.632812 -2.894531 5.738281 -2.84375 5.84375 -2.738281 L 5.367188 -1.949219 C 5.789062 -2.367188 6.316406 -2.949219 6.632812 -3.472656 C 6.84375 -3.789062 7 -4.105469 7.210938 -4.421875 C 7.261719 -4.527344 7.421875 -4.578125 7.472656 -4.683594 C 7.789062 -5.261719 8.050781 -5.84375 8.316406 -6.421875 L 8.316406 -6.578125 C 8.316406 -6.738281 8.316406 -6.945312 8.367188 -7.105469 C 8.472656 -7.367188 8.527344 -7.632812 8.683594 -7.894531 C 8.789062 -8.050781 8.738281 -8.316406 8.789062 -8.527344 C 8.84375 -8.738281 8.894531 -8.945312 8.945312 -9.210938 L 8.84375 -9.316406 C 9 -9.367188 9.15625 -9.421875 9.316406 -9.527344 C 9.367188 -9.578125 9.367188 -9.632812 9.367188 -9.683594 L 9.421875 -9.683594 L 9.367188 -9.84375 L 9.367188 -9.683594 C 9.316406 -9.632812 9.261719 -9.578125 9.105469 -9.472656 C 9.15625 -9.683594 9.105469 -9.683594 9 -9.683594 C 8.945312 -9.683594 8.894531 -9.683594 8.84375 -9.738281 C 9 -9.789062 9.105469 -9.84375 9.15625 -9.84375 C 9.15625 -10.632812 8.84375 -14.050781 7.683594 -14.050781 C 7.578125 -14.050781 7.472656 -14.050781 7.421875 -14 C 7.316406 -13.945312 7.261719 -13.84375 7.15625 -13.738281 C 7.15625 -13.683594 7.210938 -13.578125 7.210938 -13.472656 L 7.367188 -12.210938 L 7.367188 -11.894531 C 7.421875 -11.367188 7.210938 -10.894531 7.15625 -10.367188 C 7.050781 -9.367188 6.738281 -8.15625 6.421875 -7.15625 C 5.84375 -5.683594 4.527344 -3.949219 3.527344 -2.738281 C 3.472656 -2.683594 3.421875 -2.683594 3.367188 -2.683594 L 2.894531 -2.367188 C 2.632812 -2.105469 2.421875 -1.789062 2.15625 -1.527344 C 1.683594 -1.105469 1.210938 -0.683594 0.738281 -0.316406 C 0.261719 0.0507812 -0.210938 0.367188 -0.683594 0.738281 L -0.84375 0.738281 L -1 0.105469 C -1.050781 -0.210938 -1.050781 -0.527344 -1.050781 -0.84375 L -1.261719 -0.632812 C -1.210938 -0.84375 -1.15625 -1 -1.210938 -1.105469 C -1.15625 -1.261719 -1.210938 -1.472656 -1.15625 -1.632812 L -1.050781 -1.632812 C -0.84375 -2.15625 -0.578125 -2.683594 -0.316406 -3.210938 L -0.15625 -3.527344 L -0.316406 -3.527344 C -0.683594 -2.84375 -1.15625 -2.210938 -1.316406 -1.421875 C -1.316406 -1.84375 -1.15625 -2.15625 -1.050781 -2.472656 C -1 -2.578125 -0.949219 -2.683594 -0.949219 -2.789062 C -0.84375 -3.210938 -0.683594 -3.578125 -0.472656 -3.949219 L 0 -4.894531 C 0.0507812 -5 0.105469 -5.105469 0.210938 -5.261719 C 0.210938 -5.261719 0.210938 -5.367188 0.261719 -5.421875 C 0.316406 -5.527344 0.421875 -5.578125 0.472656 -5.683594 C 0.578125 -5.789062 0.632812 -5.945312 0.738281 -6.050781 C 0.949219 -6.316406 1.210938 -6.527344 1.421875 -6.789062 C 1.632812 -7 1.789062 -7.261719 2 -7.527344 L 2.632812 -8.316406 C 2.789062 -8.472656 3 -8.578125 3.105469 -8.789062 L 3 -8.316406 L 3.15625 -8.316406 L 3.316406 -8.945312 L 3.210938 -8.945312 C 3.421875 -9.316406 3.84375 -9.527344 4.15625 -9.683594 C 4.210938 -9.894531 4.210938 -9.945312 4.367188 -9.945312 L 4.683594 -9.945312 C 4.949219 -10.261719 5.210938 -10.527344 5.472656 -10.789062 C 6 -11.210938 6.316406 -11.738281 6.367188 -12.421875 C 6.367188 -12.683594 5.894531 -13.261719 5.738281 -13.261719 C 5.683594 -13.261719 5.632812 -13.261719 5.578125 -13.210938 L 5.261719 -12.894531 C 5.105469 -12.738281 4.949219 -12.527344 4.738281 -12.367188 C 2.683594 -10.738281 -1.050781 -6.421875 -2.105469 -3.894531 C -2.105469 -3.84375 -2.15625 -3.789062 -2.15625 -3.738281 C -2.316406 -3.316406 -2.527344 -2.949219 -2.683594 -2.527344 C -2.894531 -1.84375 -2.84375 -1.15625 -2.738281 -0.472656 Z M 5.945312 -3.683594 C 6 -3.949219 5.945312 -4.15625 6.261719 -4.15625 C 6.421875 -4.15625 6.421875 -4.527344 6.210938 -4.683594 C 6.367188 -4.789062 6.578125 -4.894531 6.738281 -5.050781 C 6.789062 -5.105469 6.789062 -5.261719 6.789062 -5.421875 C 6.945312 -5.527344 6.894531 -5.894531 7.210938 -5.84375 C 7.210938 -5.84375 7.261719 -5.945312 7.261719 -6 C 7.105469 -6.421875 7.472656 -6.738281 7.527344 -7.105469 L 8 -7.105469 C 7.894531 -6.789062 7.789062 -6.527344 7.683594 -6.261719 L 7.84375 -6.316406 L 7.527344 -5.527344 L 7.527344 -5.421875 C 7.261719 -5.210938 7.15625 -4.949219 7.050781 -4.683594 C 6.945312 -4.472656 6.789062 -4.316406 6.632812 -4.15625 C 6.421875 -4 6.261719 -3.84375 6 -3.683594 C 6.050781 -3.632812 6.15625 -3.632812 6.316406 -3.578125 L 5.738281 -3.421875 C 5.789062 -3.632812 5.789062 -3.683594 5.945312 -3.683594 Z M 8 -8.367188 C 8.105469 -8.367188 8.210938 -8.261719 8.367188 -8.15625 L 7.945312 -7.945312 L 7.894531 -8 C 7.894531 -8.050781 7.84375 -8.105469 7.84375 -8.15625 C 7.894531 -8.261719 7.945312 -8.367188 8 -8.367188 Z M 6.421875 -11.738281 L 6.421875 -11.683594 L 6.578125 -11.683594 C 6.578125 -11.894531 6.632812 -12.261719 6.894531 -12.261719 L 6.578125 -12.421875 C 6.527344 -12.15625 6.472656 -11.945312 6.421875 -11.738281 Z M 1.210938 -5.738281 C 1.316406 -6 1.421875 -6.210938 1.527344 -6.421875 C 1.050781 -5.945312 1.050781 -5.945312 1.210938 -5.738281 Z M 0.738281 -5.261719 C 0.789062 -5.316406 0.789062 -5.421875 0.789062 -5.472656 C 0.738281 -5.421875 0.683594 -5.421875 0.632812 -5.367188 L 0.261719 -4.789062 Z M 5.789062 -2.949219 L 5.945312 -3.261719 L 6.105469 -3.261719 C 6.050781 -3.15625 6 -3.050781 5.945312 -2.789062 Z M 5.789062 -2.949219 "/></g></g></g><g fill="#000000" fill-opacity="1"><g transform="translate(244.588814, 92.082078)"><g><path d="M 7.421875 -14.84375 C 4.789062 -14.527344 1.894531 -13.527344 -0.683594 -11.632812 C -0.84375 -11.527344 -1 -11.316406 -1 -11.15625 C -1 -10.84375 -0.632812 -10.632812 -0.316406 -10.632812 C -0.210938 -10.632812 -0.105469 -10.632812 0 -10.683594 C 0.949219 -11.261719 1.894531 -11.84375 2.84375 -12.472656 C 3.949219 -13.15625 6.578125 -13.945312 7.84375 -13.945312 C 8.632812 -13.945312 10.367188 -13.789062 10.472656 -12.84375 C 10.527344 -12.261719 10.472656 -11.578125 10.210938 -11.105469 C 8.15625 -7.527344 6.261719 -6.050781 3 -3.949219 C 2.949219 -3.894531 2.894531 -3.894531 2.84375 -3.894531 L 2.84375 -4.050781 C 3.105469 -4.632812 3.421875 -5.210938 3.683594 -5.789062 C 4.578125 -7.632812 5.738281 -10.527344 6.050781 -12.578125 C 6.15625 -13.050781 5.738281 -13.261719 5.367188 -13.367188 C 5.210938 -13.421875 4.949219 -13.210938 4.84375 -13.050781 C 4.527344 -12.472656 4.261719 -11.84375 4 -11.261719 L 2.261719 -7.472656 C 1.367188 -5.578125 0.367188 -3.789062 -0.683594 -2 C -0.789062 -1.84375 -0.949219 -1.683594 -1 -1.472656 C -1.050781 -1.261719 -0.949219 -1 -1 -0.789062 L -2.578125 3.472656 C -2.632812 3.632812 -2.578125 3.789062 -2.578125 3.949219 C -2.421875 3.84375 -2.210938 3.789062 -2.105469 3.632812 C -1.472656 2.738281 -0.894531 1.789062 -0.210938 0.949219 C 0.527344 0 1.261719 -0.949219 1.789062 -2.050781 C 1.949219 -2.367188 2.15625 -2.789062 2.472656 -2.949219 C 3.15625 -3.367188 3.949219 -3.632812 4.683594 -4 C 5.210938 -4.261719 7.472656 -5.316406 7.84375 -5.683594 C 8.15625 -5.945312 8.367188 -6.421875 8.683594 -6.472656 C 9.632812 -6.683594 9.789062 -7.683594 10.421875 -8.210938 C 10.632812 -8.367188 11.105469 -8.738281 10.894531 -9.261719 C 11 -9.261719 11.210938 -9.367188 11.210938 -9.472656 C 11.261719 -9.683594 11.367188 -9.894531 11.316406 -10.050781 C 11.210938 -10.316406 11.421875 -10.367188 11.578125 -10.367188 C 11.945312 -10.367188 12 -10.683594 12.105469 -10.894531 C 12.367188 -11.632812 12.105469 -12.316406 11.789062 -12.945312 L 11.683594 -13.105469 C 10.683594 -14.683594 9.105469 -14.84375 7.421875 -14.84375 Z M 7.421875 -14.84375 "/></g></g></g><g fill="#000000" fill-opacity="1"><g transform="translate(256.848231, 92.082078)"><g><path d="M 6.367188 5.210938 C 6.527344 5.210938 6.683594 5.105469 6.738281 4.949219 L 7.683594 3.050781 C 7.945312 2.472656 8.15625 1.894531 8.472656 1.316406 L 9.578125 -0.738281 C 9.894531 -1.261719 10.210938 -1.738281 10.527344 -2.261719 C 10.738281 -2.632812 10.894531 -3 11.105469 -3.367188 C 11.472656 -4 11.894531 -4.632812 12.316406 -5.261719 L 12.789062 -6.050781 C 13.050781 -6.472656 13.367188 -6.894531 13.632812 -7.316406 C 13.945312 -7.789062 14.210938 -8.261719 14.472656 -8.738281 L 14.945312 -9.527344 C 15.261719 -10 15.472656 -10.527344 15.738281 -11.050781 L 16.050781 -11.84375 C 16.367188 -12.527344 16.683594 -13.210938 16.945312 -13.894531 C 17 -14.050781 16.945312 -14.210938 17 -14.367188 C 17.105469 -14.578125 17.050781 -14.738281 16.839844 -14.84375 L 16.578125 -14.84375 C 16.15625 -15.050781 15.738281 -15.261719 15.316406 -15.421875 C 15.15625 -15.472656 14.789062 -15.316406 14.738281 -15.210938 C 14.632812 -14.738281 14.261719 -14.472656 13.945312 -14.15625 L 10.578125 -10.789062 C 9.894531 -10.105469 9.261719 -9.367188 8.632812 -8.632812 L 6.261719 -5.789062 C 6.316406 -6.210938 6.421875 -6.632812 6.472656 -7.050781 C 6.683594 -8.527344 6.789062 -9.945312 6.789062 -11.472656 C 6.789062 -11.738281 6.84375 -12 6.789062 -12.210938 C 6.632812 -12.683594 6.316406 -13.527344 5.738281 -13.527344 C 5.050781 -13.527344 4.472656 -13.15625 4.261719 -12.472656 C 4.210938 -12.367188 4.105469 -12.261719 4.050781 -12.15625 C 3.472656 -11 2.894531 -9.84375 2.367188 -8.683594 C 1.894531 -7.683594 1.472656 -6.683594 1 -5.683594 L 0.210938 -3.949219 C 0 -3.527344 -0.210938 -3.105469 -0.367188 -2.632812 C -0.578125 -2.15625 -0.683594 -1.632812 -0.894531 -1.15625 C -1.210938 -0.472656 -1.632812 0.15625 -2 0.84375 C -2.15625 1.15625 -2.316406 1.472656 -2.421875 1.789062 C -2.527344 2.050781 -2.421875 2.261719 -2.210938 2.367188 C -2.15625 2.367188 -2.105469 2.421875 -2.050781 2.421875 C -1.894531 2.421875 -1.738281 2.261719 -1.632812 2.105469 L -1.15625 1.316406 L -0.683594 0.683594 C -0.367188 0.15625 -0.0507812 -0.421875 0.261719 -0.949219 C 0.578125 -1.472656 0.949219 -2 1.316406 -2.527344 L 1.949219 -3.632812 C 2.261719 -4.105469 2.578125 -4.527344 2.894531 -5 C 3.105469 -5.261719 3.261719 -5.578125 3.472656 -5.84375 L 4.261719 -6.945312 L 4.261719 -6.84375 L 4.105469 -4.949219 C 4.050781 -4.421875 4.15625 -3.949219 4.472656 -3.527344 C 4.578125 -3.316406 4.789062 -3.210938 5.050781 -3.210938 C 5.105469 -3.210938 5.210938 -3.210938 5.261719 -3.261719 C 5.578125 -3.421875 5.894531 -3.632812 6.105469 -3.894531 C 7.210938 -5.15625 8.261719 -6.421875 9.367188 -7.683594 C 9.789062 -8.210938 10.261719 -8.683594 10.738281 -9.15625 L 12.472656 -10.894531 L 12.632812 -10.738281 L 12.316406 -10.105469 C 12.15625 -9.738281 12.105469 -9.316406 11.945312 -8.945312 C 11.261719 -7.632812 10.527344 -6.316406 9.84375 -5 L 8.738281 -2.789062 C 8.472656 -2.261719 8.210938 -1.738281 8 -1.210938 C 7.632812 -0.367188 7.316406 0.527344 6.945312 1.367188 C 6.632812 2.050781 6.261719 2.683594 5.945312 3.367188 C 5.738281 3.84375 5.632812 4.316406 5.84375 4.789062 C 5.894531 4.949219 6.050781 5.105469 6.210938 5.15625 C 6.261719 5.210938 6.316406 5.210938 6.367188 5.210938 Z M 6.367188 5.210938 "/></g></g></g><g fill="#000000" fill-opacity="1"><g transform="translate(271.896272, 92.082078)"><g><path d="M 10.632812 -8.210938 C 10.367188 -8.261719 10.105469 -8.316406 9.84375 -8.316406 L 9 -8.316406 C 7.683594 -8.316406 6.421875 -8.15625 5.105469 -8 C 5.527344 -8.84375 5.894531 -9.632812 6.261719 -10.421875 C 6.472656 -10.789062 6.738281 -11.15625 6.84375 -11.527344 C 6.945312 -11.894531 7.15625 -12 7.472656 -12.050781 C 7.683594 -12.105469 7.894531 -12.105469 8.105469 -12.105469 L 9.84375 -12.261719 C 10 -12.261719 10.15625 -12.316406 10.316406 -12.316406 C 11.261719 -12.421875 13.578125 -12.738281 14.210938 -13.15625 C 14.578125 -13.472656 15 -13.578125 15.421875 -13.683594 C 15.683594 -13.738281 15.945312 -13.84375 16.210938 -13.945312 C 16.261719 -13.945312 16.316406 -14 16.367188 -14.050781 C 16.316406 -14.105469 16.261719 -14.15625 16.210938 -14.15625 L 16.367188 -14.527344 C 15.894531 -14.578125 15.421875 -14.632812 14.945312 -14.632812 C 13.105469 -14.632812 11.261719 -14.578125 9.421875 -14.527344 C 8.945312 -14.527344 8.472656 -14.527344 8 -14.472656 L 7.105469 -14.472656 C 6.945312 -14.472656 6.738281 -14.472656 6.578125 -14.421875 C 6.210938 -14.367188 5.84375 -14.316406 5.472656 -14.316406 C 5 -14.316406 4.472656 -14.367188 4 -14.367188 C 3.683594 -14.367188 3.421875 -14.210938 3.472656 -14 C 3.632812 -13.472656 3.894531 -13 4.367188 -12.738281 C 4.683594 -12.578125 5.050781 -12.472656 5.367188 -12.316406 C 5.15625 -12.050781 4.949219 -11.789062 4.738281 -11.472656 C 4.316406 -10.789062 3.894531 -10.050781 3.472656 -9.316406 C 3.210938 -8.894531 2.949219 -8.472656 2.738281 -8.050781 C 2.683594 -7.945312 2.632812 -7.738281 2.632812 -7.738281 C 2.894531 -7.632812 2.683594 -7.527344 2.632812 -7.421875 C 2.367188 -7.050781 2.105469 -6.683594 1.894531 -6.261719 C 1.316406 -5.261719 0.738281 -4.210938 0.15625 -3.210938 C -0.105469 -2.789062 -0.367188 -2.367188 -0.578125 -1.949219 C -0.84375 -1.472656 -1.050781 -0.949219 -1.316406 -0.472656 C -1.789062 0.421875 -2.261719 1.261719 -3.421875 1.421875 C -3.789062 1.472656 -3.84375 1.949219 -3.578125 2.210938 C -3.527344 2.261719 -3.472656 2.367188 -3.367188 2.421875 C -3.105469 2.527344 -3.050781 2.738281 -3 3 C -2.894531 3.527344 -2.894531 3.527344 -2.367188 3.527344 C -2 3.527344 -1.789062 3.421875 -1.578125 3.105469 C -1.421875 2.894531 -1.367188 2.894531 -1.105469 2.894531 L -1.421875 3.367188 L -1.261719 3.367188 L -0.949219 2.894531 C -0.738281 2.683594 -0.578125 2.421875 -0.367188 2.316406 C 0.261719 2.050781 0.949219 1.894531 1.578125 1.683594 C 1.84375 1.632812 2.105469 1.632812 2.316406 1.527344 L 3.894531 0.894531 C 4.15625 0.789062 4.421875 0.738281 4.683594 0.632812 L 7.683594 -0.472656 C 8.15625 -0.632812 8.632812 -0.84375 8.84375 -1.367188 C 8.945312 -1.316406 9.050781 -1.261719 9.15625 -1.261719 C 9.472656 -1.261719 9.738281 -1.527344 9.894531 -1.949219 C 6.738281 -1.789062 3.738281 -0.894531 0.738281 0 C 0.894531 -0.261719 1.050781 -0.472656 1.210938 -0.683594 L 2.15625 -2.261719 L 3.105469 -4.15625 C 3.472656 -4.84375 3.84375 -5.527344 4.210938 -6.15625 C 4.261719 -6.261719 4.421875 -6.316406 4.527344 -6.316406 C 5 -6.261719 5.472656 -6.15625 5.945312 -6.15625 C 6.683594 -6.210938 7.421875 -6.316406 8.15625 -6.421875 C 8.527344 -6.472656 8.945312 -6.527344 9.050781 -7 C 9.050781 -7.050781 9.105469 -7.050781 9.15625 -7.105469 L 9.316406 -7.261719 L 8.84375 -7.261719 C 8.945312 -7.421875 9.050781 -7.578125 9.15625 -7.632812 L 9.316406 -7.632812 C 9.421875 -7.632812 9.527344 -7.632812 9.683594 -7.578125 C 9.527344 -7.472656 9.472656 -7.421875 9.367188 -7.367188 C 9.472656 -7.316406 9.527344 -7.261719 9.578125 -7.261719 L 10.683594 -7.738281 C 10.738281 -7.789062 10.738281 -8 10.738281 -8.105469 C 10.738281 -8.15625 10.683594 -8.210938 10.632812 -8.210938 Z M 8.632812 -1.472656 C 8.738281 -1.472656 8.789062 -1.421875 8.894531 -1.421875 C 8.683594 -1.261719 8.472656 -1.105469 8.210938 -0.894531 C 8.261719 -1.050781 8.261719 -1.15625 8.316406 -1.261719 L 8.367188 -1.261719 C 8.472656 -1.421875 8.527344 -1.472656 8.632812 -1.472656 Z M 8.632812 -1.472656 "/></g></g></g><g fill="#000000" fill-opacity="1"><g transform="translate(283.892612, 92.082078)"><g><path d="M -1.316406 1.84375 C -1.316406 1.949219 -1.261719 2 -1.15625 2 C -1.15625 2 -1.105469 2 -1.050781 1.949219 C 0.0507812 1.210938 1.105469 -0.367188 1.84375 -1.472656 L 2.472656 -2.738281 C 2.578125 -2.949219 2.683594 -3.15625 2.789062 -3.316406 C 2.949219 -3.578125 3.050781 -3.894531 3.367188 -4 C 3.421875 -4 3.472656 -4.15625 3.527344 -4.261719 C 3.578125 -4.367188 3.578125 -4.527344 3.632812 -4.632812 C 3.789062 -4.84375 4 -5 4.15625 -5.15625 C 4.527344 -5.578125 4.789062 -6.105469 5.105469 -6.578125 C 4.789062 -6.683594 4.949219 -6.945312 5 -7.105469 C 5.050781 -7.367188 5.15625 -7.632812 5.472656 -7.789062 C 5.472656 -7.367188 5.527344 -7 5.527344 -6.632812 L 5.367188 -4.738281 C 5.367188 -4.367188 5.421875 -4 5.367188 -3.632812 C 5.261719 -2.316406 5.105469 -1 5 0.316406 C 4.949219 1.210938 4.949219 2.105469 4.949219 3 C 4.949219 3.316406 5.261719 3.527344 5.578125 3.472656 L 5.738281 3.472656 C 6.15625 3.472656 6.578125 3.472656 6.84375 3.050781 C 7.050781 2.789062 7.15625 2.421875 7.367188 2.15625 C 7.632812 1.84375 7.738281 1.421875 7.894531 1.050781 C 8.15625 0.421875 8.421875 -0.261719 8.683594 -0.894531 C 8.789062 -1.105469 8.945312 -1.261719 9.050781 -1.472656 L 9.84375 -3.367188 C 10.050781 -3.894531 10.367188 -4.316406 10.527344 -4.84375 C 10.738281 -5.421875 11.050781 -5.945312 11.316406 -6.472656 L 12.738281 -9.316406 C 12.945312 -9.738281 13.210938 -10.15625 13.421875 -10.578125 L 14.683594 -12.945312 C 14.894531 -13.316406 15.050781 -13.738281 15.261719 -14.105469 L 15.894531 -15.210938 C 15.367188 -14.421875 14.789062 -13.578125 14.261719 -12.683594 C 13.527344 -11.421875 12.84375 -10.105469 12.105469 -8.84375 C 10.945312 -6.84375 9.738281 -4.894531 8.527344 -2.949219 C 8.367188 -2.683594 8.105469 -2.472656 7.945312 -2.210938 C 7.683594 -1.632812 7.472656 -1.050781 7.210938 -0.472656 C 7.15625 -0.367188 7.050781 -0.316406 7 -0.261719 L 6.84375 -0.261719 L 6.84375 -0.894531 L 7 -2.316406 C 7.050781 -2.789062 7.105469 -3.421875 7.105469 -3.894531 C 7.15625 -4 7.210938 -4.105469 7.210938 -4.210938 C 7.210938 -4.527344 7.15625 -4.84375 7.15625 -5.15625 C 7.15625 -5.472656 7.261719 -5.789062 7.316406 -6.105469 C 7.316406 -6.210938 7.367188 -6.316406 7.367188 -6.316406 C 7.578125 -6.367188 7.789062 -6.367188 7.84375 -6.421875 C 7.945312 -6.632812 8.050781 -6.894531 7.789062 -7.15625 C 7.683594 -6.945312 7.632812 -6.738281 7.578125 -6.527344 L 7.421875 -6.527344 C 7.472656 -6.894531 7.527344 -7.261719 7.578125 -7.738281 C 7.632812 -7.578125 7.683594 -7.527344 7.738281 -7.472656 L 7.894531 -7.472656 C 7.789062 -7.84375 8.367188 -8.105469 8 -8.527344 C 8 -8.527344 8.050781 -8.578125 8.050781 -8.632812 L 8.050781 -9.894531 C 8.050781 -10.050781 8.105469 -10.210938 8.105469 -10.367188 C 8.105469 -10.527344 8 -10.683594 8 -10.84375 C 7.945312 -11.527344 7.316406 -12.210938 6.632812 -12.210938 C 6.316406 -12.210938 6.050781 -12.105469 5.84375 -11.84375 C 5.472656 -11.367188 5.105469 -10.894531 4.789062 -10.367188 C 3.105469 -7.632812 1.527344 -4.789062 0 -1.949219 C -0.527344 -0.894531 -1.316406 0.632812 -1.316406 1.84375 Z M 4.632812 -6.683594 C 4.683594 -6.578125 4.789062 -6.472656 4.789062 -6.367188 C 4.789062 -6.316406 4.632812 -6.261719 4.527344 -6.210938 L 4.472656 -6.316406 L 4.472656 -6.210938 L 4.15625 -5.894531 C 4.105469 -6.210938 4.261719 -6.421875 4.632812 -6.683594 Z M 15.894531 -15.84375 C 16 -15.683594 16 -15.527344 15.945312 -15.367188 L 16.105469 -15.527344 Z M 15.894531 -15.84375 "/></g></g></g><g fill="#000000" fill-opacity="1"><g transform="translate(296.993879, 92.082078)"><g><path d="M -2.632812 -16.527344 L -2.632812 -16.367188 C -2.578125 -16.210938 -2.527344 -16.050781 -2.421875 -15.894531 L -1.632812 -14.945312 L -0.683594 -14.472656 C -0.527344 -14.421875 -0.316406 -14.316406 -0.210938 -14.367188 C -0.0507812 -14.472656 0.105469 -14.472656 0.261719 -14.472656 C 0.527344 -14.472656 0.789062 -14.527344 1.050781 -14.632812 L 1.367188 -14.789062 C 1.632812 -14.894531 1.894531 -14.945312 2.15625 -15 C 2.261719 -15.050781 2.367188 -15.050781 2.472656 -15.050781 L 2.949219 -15.050781 C 3.210938 -15.050781 3.421875 -15.210938 3.738281 -15.210938 L 3.894531 -15.210938 C 3.949219 -15.210938 4 -15.261719 4.050781 -15.261719 L 5.316406 -15.578125 C 5.683594 -15.683594 6.050781 -15.632812 6.421875 -15.945312 C 6.367188 -15.738281 6.367188 -15.578125 6.316406 -15.421875 C 6.050781 -14.945312 5.789062 -14.472656 5.578125 -14 C 5.15625 -13.15625 4.789062 -12.261719 4.421875 -11.421875 L 3.472656 -9.527344 C 1.578125 -5.472656 0.105469 -1 -1.105469 3.316406 C -1.210938 3.632812 -1.316406 4 -1.367188 4.367188 C -1.367188 4.421875 -1.316406 4.527344 -1.261719 4.527344 C -1.210938 4.578125 -1.105469 4.527344 -1.050781 4.472656 C -0.949219 4.367188 -0.84375 4.261719 -0.789062 4.105469 L -0.316406 3 C -0.105469 2.472656 0.15625 2 0.367188 1.472656 C 0.84375 0.527344 1.367188 -0.472656 1.789062 -1.472656 C 1.84375 -1.578125 1.84375 -1.738281 1.894531 -1.789062 C 2.261719 -2.15625 2.472656 -2.632812 2.738281 -3.105469 C 2.894531 -3.367188 3.105469 -3.632812 3.261719 -3.894531 C 3.367188 -4.050781 3.421875 -4.261719 3.527344 -4.421875 C 3.632812 -4.683594 3.738281 -5 3.949219 -5.210938 C 4.367188 -5.683594 4.578125 -6.210938 4.789062 -6.789062 L 5.421875 -8.050781 C 5.527344 -8.210938 5.632812 -8.472656 5.789062 -8.527344 C 5.945312 -8.578125 5.945312 -8.683594 6 -8.789062 C 6 -8.84375 5.945312 -8.945312 6 -8.945312 C 6.210938 -9.105469 6.316406 -9.367188 6.367188 -9.632812 C 6.421875 -9.945312 6.894531 -10.105469 6.738281 -10.527344 C 6.738281 -10.527344 6.789062 -10.578125 6.789062 -10.632812 C 6.894531 -10.84375 7 -11.050781 7.050781 -11.261719 C 7.105469 -11.367188 7.050781 -11.527344 7.105469 -11.578125 C 7.421875 -11.84375 7.578125 -12.15625 7.632812 -12.578125 L 7.632812 -12.738281 C 7.84375 -13 8.050781 -13.261719 8.105469 -13.632812 L 8.105469 -13.316406 C 8.210938 -13.84375 8.261719 -14.367188 8.316406 -14.894531 C 8.421875 -15.421875 8.210938 -15.84375 7.894531 -16.210938 C 7.84375 -16.261719 7.789062 -16.367188 7.738281 -16.472656 L 8.050781 -16.632812 L 8.210938 -16.632812 L 8 -16.421875 L 8.15625 -16.421875 C 8.421875 -16.527344 8.632812 -16.683594 8.894531 -16.789062 C 9.632812 -17.050781 9.894531 -17.105469 10.683594 -17.105469 C 11.210938 -17.210938 11.738281 -17.367188 12.261719 -17.472656 L 13.367188 -17.632812 L 15.738281 -18.261719 C 15.84375 -18.316406 16 -18.316406 16.105469 -18.367188 L 19.050781 -19.789062 C 19.316406 -19.789062 19.527344 -19.839844 19.738281 -19.839844 L 19.738281 -20.210938 C 19.789062 -20.261719 19.894531 -20.316406 19.945312 -20.367188 L 19.738281 -20.367188 L 19.738281 -20.210938 C 19.632812 -20.105469 19.527344 -20 19.421875 -19.945312 L 19.050781 -19.789062 C 14.894531 -18.945312 10.738281 -18.421875 6.527344 -17.839844 C 4.683594 -17.578125 2.949219 -17.15625 1.15625 -16.738281 C 0.527344 -16.578125 -0.316406 -16.367188 -1 -16.367188 C -1.210938 -16.367188 -1.472656 -16.421875 -1.683594 -16.527344 C -1.738281 -16.578125 -1.84375 -16.578125 -1.894531 -16.527344 C -2 -16.472656 -2.105469 -16.472656 -2.210938 -16.472656 C -2.316406 -16.472656 -2.472656 -16.472656 -2.632812 -16.527344 Z M -2.632812 -16.527344 "/></g></g></g></svg>