<svg xmlns="http://www.w3.org/2000/svg" xmlns:xlink="http://www.w3.org/1999/xlink" width="500" zoomAndPan="magnify" viewBox="0 0 375 112.499997" height="150" preserveAspectRatio="xMidYMid meet" version="1.0"><defs><g/></defs><g fill="#eff6ed" fill-opacity="1"><g transform="translate(44.393189, 103.107099)"><g><path d="M 3.53125 -75.292969 L 3.53125 0 L 12.941406 0 L 12.941406 -32.941406 L 17.648438 -32.941406 C 21.648438 -32.941406 24.941406 -34.351562 27.644531 -37.058594 C 30.46875 -39.882812 31.765625 -43.175781 31.765625 -47.058594 L 31.765625 -61.175781 C 31.765625 -65.175781 30.46875 -68.46875 27.644531 -71.175781 C 24.941406 -74 21.648438 -75.292969 17.648438 -75.292969 Z M 12.941406 -65.882812 L 17.648438 -65.882812 C 19.058594 -65.882812 20 -65.527344 20.941406 -64.585938 C 21.882812 -63.644531 22.351562 -62.585938 22.351562 -61.175781 L 22.351562 -47.058594 C 22.351562 -45.765625 22 -44.703125 21.058594 -43.765625 C 20.117188 -42.824219 19.058594 -42.351562 17.648438 -42.351562 L 12.941406 -42.351562 Z M 12.941406 -65.882812 "/></g></g></g><g fill="#eff6ed" fill-opacity="1"><g transform="translate(79.681582, 103.107099)"><g><path d="M 3.53125 -75.292969 L 3.53125 0 L 12.941406 0 L 12.941406 -32.941406 L 17.765625 -32.941406 L 26 0 L 35.765625 0 L 26.585938 -36.234375 C 28 -37.410156 29.292969 -38.941406 30.234375 -41.058594 C 31.292969 -43.292969 31.765625 -45.292969 31.765625 -47.058594 L 31.765625 -61.175781 C 31.765625 -65.175781 30.46875 -68.46875 27.644531 -71.175781 C 24.941406 -74 21.648438 -75.292969 17.648438 -75.292969 Z M 12.941406 -65.882812 L 17.648438 -65.882812 C 19.058594 -65.882812 20 -65.527344 20.941406 -64.585938 C 21.882812 -63.644531 22.351562 -62.585938 22.351562 -61.175781 L 22.351562 -47.058594 C 22.351562 -45.765625 22 -44.703125 21.058594 -43.765625 C 20.117188 -42.824219 19.058594 -42.351562 17.648438 -42.351562 L 12.941406 -42.351562 Z M 12.941406 -65.882812 "/></g></g></g><g fill="#eff6ed" fill-opacity="1"><g transform="translate(118.851691, 103.107099)"><g><path d="M 3.53125 -61.175781 L 3.53125 -51.761719 L 12.941406 -51.761719 L 12.941406 -61.175781 C 12.941406 -62.585938 13.292969 -63.527344 14.234375 -64.46875 C 15.175781 -65.410156 16.351562 -65.882812 17.648438 -65.882812 C 19.058594 -65.882812 20 -65.527344 20.941406 -64.585938 C 21.882812 -63.644531 22.351562 -62.585938 22.351562 -61.175781 L 22.351562 -51.761719 L 31.765625 -51.761719 L 31.765625 -61.175781 C 31.765625 -65.175781 30.46875 -68.46875 27.644531 -71.175781 C 24.941406 -74 21.648438 -75.292969 17.648438 -75.292969 C 13.765625 -75.292969 10.46875 -74 7.648438 -71.175781 C 4.941406 -68.46875 3.53125 -65.175781 3.53125 -61.175781 Z M 3.53125 -23.527344 L 3.53125 -14.117188 C 3.53125 -10.234375 4.941406 -6.941406 7.648438 -4.117188 C 10.46875 -1.410156 13.765625 0 17.648438 0 C 21.648438 0 24.941406 -1.410156 27.644531 -4.117188 C 30.46875 -6.941406 31.765625 -10.234375 31.765625 -14.117188 L 31.765625 -23.527344 L 22.351562 -23.527344 L 22.351562 -14.117188 C 22.351562 -12.824219 22 -11.765625 21.058594 -10.824219 C 20.117188 -9.882812 19.058594 -9.410156 17.648438 -9.410156 C 16.351562 -9.410156 15.292969 -9.765625 14.351562 -10.707031 C 13.410156 -11.648438 12.941406 -12.824219 12.941406 -14.117188 L 12.941406 -23.527344 Z M 3.53125 -23.527344 "/></g></g></g><g fill="#eff6ed" fill-opacity="1"><g transform="translate(154.140084, 103.107099)"><g><path d="M 8.234375 -75.292969 L 8.234375 -65.882812 L 22.351562 -65.882812 L 22.351562 -14.117188 C 22.351562 -12.824219 22 -11.765625 21.058594 -10.824219 C 20.117188 -9.882812 19.058594 -9.410156 17.648438 -9.410156 C 16.351562 -9.410156 15.292969 -9.765625 14.351562 -10.707031 C 13.410156 -11.648438 12.941406 -12.824219 12.941406 -14.117188 L 12.941406 -18.824219 L 3.53125 -18.824219 L 3.53125 -14.117188 C 3.53125 -10.234375 4.941406 -6.941406 7.648438 -4.117188 C 10.46875 -1.410156 13.765625 0 17.648438 0 C 21.648438 0 24.941406 -1.410156 27.644531 -4.117188 C 30.46875 -6.941406 31.765625 -10.234375 31.765625 -14.117188 L 31.765625 -75.292969 Z M 8.234375 -75.292969 "/></g></g></g><g fill="#eff6ed" fill-opacity="1"><g transform="translate(189.428478, 103.107099)"><g><path d="M 3.53125 -75.292969 L 3.53125 -65.882812 L 31.765625 -65.882812 L 31.765625 -75.292969 Z M 3.53125 -9.410156 L 3.53125 0 L 31.765625 0 L 31.765625 -9.410156 Z M 3.53125 -42.351562 L 3.53125 -32.941406 L 27.058594 -32.941406 L 27.058594 -42.351562 Z M 3.53125 -42.351562 "/></g></g></g><g fill="#eff6ed" fill-opacity="1"><g transform="translate(224.716872, 103.107099)"><g><path d="M 3.53125 -61.175781 L 3.53125 -14.117188 C 3.53125 -10.234375 4.941406 -6.941406 7.648438 -4.117188 C 10.46875 -1.410156 13.765625 0 17.648438 0 C 21.648438 0 24.941406 -1.410156 27.644531 -4.117188 C 30.46875 -6.941406 31.765625 -10.234375 31.765625 -14.117188 L 31.765625 -18.824219 L 22.351562 -18.824219 L 22.351562 -14.117188 C 22.351562 -12.824219 22 -11.765625 21.058594 -10.824219 C 20.117188 -9.882812 19.058594 -9.410156 17.648438 -9.410156 C 16.351562 -9.410156 15.292969 -9.765625 14.351562 -10.707031 C 13.410156 -11.648438 12.941406 -12.824219 12.941406 -14.117188 L 12.941406 -61.175781 C 12.941406 -62.585938 13.292969 -63.527344 14.234375 -64.46875 C 15.175781 -65.410156 16.351562 -65.882812 17.648438 -65.882812 C 19.058594 -65.882812 20 -65.527344 20.941406 -64.585938 C 21.882812 -63.644531 22.351562 -62.585938 22.351562 -61.175781 L 22.351562 -56.46875 L 31.765625 -56.46875 L 31.765625 -61.175781 C 31.765625 -65.175781 30.46875 -68.46875 27.644531 -71.175781 C 24.941406 -74 21.648438 -75.292969 17.648438 -75.292969 C 13.765625 -75.292969 10.46875 -74 7.648438 -71.175781 C 4.941406 -68.46875 3.53125 -65.175781 3.53125 -61.175781 Z M 3.53125 -61.175781 "/></g></g></g><g fill="#eff6ed" fill-opacity="1"><g transform="translate(260.005265, 103.107099)"><g><path d="M 3.53125 -75.292969 L 3.53125 -65.882812 L 12.941406 -65.882812 L 12.941406 0 L 22.351562 0 L 22.351562 -65.882812 L 31.765625 -65.882812 L 31.765625 -75.292969 Z M 3.53125 -75.292969 "/></g></g></g><g fill="#eff6ed" fill-opacity="1"><g transform="translate(295.293659, 103.107099)"><g><path d="M 3.53125 -61.175781 L 3.53125 -47.058594 C 3.53125 -43.175781 4.941406 -39.882812 7.648438 -37.058594 C 10.46875 -34.351562 13.765625 -32.941406 17.648438 -32.941406 C 19.058594 -32.941406 20 -32.585938 20.941406 -31.644531 C 21.882812 -30.707031 22.351562 -29.644531 22.351562 -28.234375 L 22.351562 -14.117188 C 22.351562 -12.824219 22 -11.765625 21.058594 -10.824219 C 20.117188 -9.882812 19.058594 -9.410156 17.648438 -9.410156 C 16.351562 -9.410156 15.292969 -9.765625 14.351562 -10.707031 C 13.410156 -11.648438 12.941406 -12.824219 12.941406 -14.117188 L 12.941406 -18.824219 L 3.53125 -18.824219 L 3.53125 -14.117188 C 3.53125 -10.234375 4.941406 -6.941406 7.648438 -4.117188 C 10.46875 -1.410156 13.765625 0 17.648438 0 C 21.648438 0 24.941406 -1.410156 27.644531 -4.117188 C 30.46875 -6.941406 31.765625 -10.234375 31.765625 -14.117188 L 31.765625 -28.234375 C 31.765625 -32.234375 30.46875 -35.527344 27.644531 -38.234375 C 24.941406 -41.058594 21.648438 -42.351562 17.648438 -42.351562 C 16.351562 -42.351562 15.292969 -42.703125 14.351562 -43.644531 C 13.410156 -44.585938 12.941406 -45.765625 12.941406 -47.058594 L 12.941406 -61.175781 C 12.941406 -62.585938 13.292969 -63.527344 14.234375 -64.46875 C 15.175781 -65.410156 16.351562 -65.882812 17.648438 -65.882812 C 19.058594 -65.882812 20 -65.527344 20.941406 -64.585938 C 21.882812 -63.644531 22.351562 -62.585938 22.351562 -61.175781 L 22.351562 -56.46875 L 31.765625 -56.46875 L 31.765625 -61.175781 C 31.765625 -65.175781 30.46875 -68.46875 27.644531 -71.175781 C 24.941406 -74 21.648438 -75.292969 17.648438 -75.292969 C 13.765625 -75.292969 10.46875 -74 7.648438 -71.175781 C 4.941406 -68.46875 3.53125 -65.175781 3.53125 -61.175781 Z M 3.53125 -61.175781 "/></g></g></g></svg>