<svg xmlns="http://www.w3.org/2000/svg" width="512" height="512" fill-rule="evenodd" clip-rule="evenodd" image-rendering="optimizeQuality" shape-rendering="geometricPrecision" text-rendering="geometricPrecision" viewBox="0 0 512 512" id="spotify"><path d="M407.04 227.84c-81.92,-48.63 -218.88,-53.76 -296.96,-29.44 -12.8,3.85 -25.61,-3.83 -29.44,-15.36 -3.85,-12.79 3.83,-25.59 15.36,-29.43 90.88,-26.89 240.64,-21.77 335.36,34.55 11.52,6.41 15.36,21.77 8.96,33.28 -6.4,8.96 -21.76,12.8 -33.28,6.4zm-2.56 71.68c-6.4,8.96 -17.92,12.81 -26.88,6.41 -69.12,-42.25 -174.08,-55.04 -254.72,-29.45 -10.24,2.57 -21.76,-2.56 -24.32,-12.79 -2.56,-10.25 2.56,-21.76 12.8,-24.33 93.43,-28.15 208.64,-14.07 288,34.56 7.68,3.84 11.52,16.65 5.12,25.6zm-30.72 70.4c-5.12,7.69 -14.08,10.24 -21.76,5.13 -60.16,-37.12 -135.68,-44.8 -225.29,-24.32 -8.95,2.55 -16.63,-3.84 -19.19,-11.53 -2.56,-8.95 3.84,-16.64 11.52,-19.19 97.28,-21.76 181.76,-12.8 248.32,28.15 8.96,3.85 10.24,14.08 6.4,21.76zm-117.76 -369.92c-141.38,0 -256,114.62 -256,256.01 0,141.38 114.62,255.99 256,255.99 141.39,0 256,-114.61 256,-255.99 0,-141.39 -114.61,-256.01 -256,-256.01z"></path></svg>